<svg width="427" height="286" viewBox="0 0 427 286" fill="none" xmlns="http://www.w3.org/2000/svg">
<path d="M0.301208 152.005C0.301208 209.854 36.9671 259.144 88.3239 277.899C96.1365 280.758 104.201 282.875 112.411 284.221C134.996 287.926 158.152 285.823 179.701 278.11C231.382 259.509 268.316 210.053 268.292 151.976C268.292 78.0027 208.298 18.0093 134.297 18.0093C106.329 17.9686 79.0556 26.7183 56.3315 43.0217C22.4064 67.3277 0.301208 107.084 0.301208 152.005Z" fill="#E5E5E5"/>
<path d="M88.324 277.899C96.1367 280.758 104.201 282.875 112.411 284.221C134.996 287.926 158.152 285.823 179.701 278.11L173.513 253.281L173.139 251.791L160.511 251.839L97.0702 252.067L96.2581 254.466L88.324 277.899Z" fill="#2F2E41"/>
<path d="M310.606 0H427V131.703H310.606V0Z" fill="#E6E6E6"/>
<path d="M312.885 2.78638H424.925V128.917H312.885V2.78638Z" fill="white"/>
<path d="M368.803 124.433C365.334 124.433 362.523 121.621 362.523 118.152C362.523 114.684 365.334 111.872 368.803 111.872C372.271 111.872 375.083 114.684 375.083 118.152C375.083 121.621 372.271 124.433 368.803 124.433Z" fill="#E6E6E6"/>
<path d="M369.864 47.4338H405.936V51.124H369.864V47.4338Z" fill="#E6E6E6"/>
<path d="M351.494 58.4919H405.936V62.1821H351.494V58.4919Z" fill="#EE6C4D"/>
<path d="M356.838 69.6191H405.936V73.3093H356.838V69.6191Z" fill="#E6E6E6"/>
<path d="M330.118 80.4524H405.936V84.1425H330.118V80.4524Z" fill="#EE6C4D"/>
<path d="M343.358 90.7697H405.148V94.4598H343.358V90.7697Z" fill="#E6E6E6"/>
<path d="M261.492 214.308C261.049 214.762 260.643 215.251 260.277 215.769L203.387 214.377L196.75 202.25L177.138 209.874L186.802 232.485C187.582 234.312 188.934 235.836 190.655 236.829C192.376 237.822 194.372 238.23 196.344 237.991L260.621 230.227C262.137 232.146 264.202 233.558 266.54 234.276C268.879 234.993 271.38 234.982 273.712 234.243C276.044 233.504 278.095 232.073 279.594 230.139C281.092 228.206 281.967 225.862 282.1 223.42C282.234 220.977 281.622 218.552 280.343 216.466C279.065 214.381 277.183 212.734 274.946 211.744C272.709 210.755 270.223 210.47 267.821 210.927C265.418 211.385 263.211 212.563 261.494 214.305L261.492 214.308Z" fill="#9F616A"/>
<path d="M184.92 145.056L158.296 136.331L150.476 125.607L112.423 127.859L106.836 140.373L86.5452 149.961L89.6636 207.873L94.9983 262.071C122.43 247.866 173.625 258.696 174.073 258.872L184.92 145.056Z" fill="#EE6C4D"/>
<path d="M179.228 223.444L206.309 212.609L206.194 212.127C206.078 211.639 194.551 163.475 193.021 155.735C191.427 147.672 185.602 145.442 185.355 145.352L185.174 145.285L174.457 148.547L169.75 185.53L179.228 223.444Z" fill="#EE6C4D"/>
<path d="M120.755 259.688C120.121 259.673 119.486 259.708 118.856 259.793L81.1968 217.129L85.5772 204.019L66.6522 194.822L56.6411 217.281C55.8323 219.096 55.6339 221.124 56.0757 223.06C56.5175 224.997 57.5756 226.738 59.0912 228.022L108.487 269.875C108.11 272.292 108.479 274.766 109.543 276.968C110.607 279.171 112.316 280.997 114.444 282.204C116.571 283.411 119.015 283.942 121.452 283.726C123.888 283.511 126.201 282.558 128.083 280.995C129.965 279.433 131.327 277.335 131.987 274.979C132.647 272.624 132.575 270.124 131.779 267.811C130.984 265.498 129.503 263.482 127.534 262.031C125.565 260.58 123.2 259.763 120.755 259.688Z" fill="#9F616A"/>
<path d="M84.2027 221.282L99.9122 184.33L93.785 158.59L87.1831 150.249C86.6996 150.042 86.1784 149.938 85.6526 149.943C85.1267 149.948 84.6076 150.062 84.128 150.278C81.6917 151.257 79.6209 154.261 77.9654 159.204L63.2426 201.14L84.2027 221.282Z" fill="#EE6C4D"/>
<path d="M165.708 111.914V84.0551C165.724 79.1528 164.775 74.2952 162.914 69.7598C161.053 65.2244 158.316 61.0999 154.861 57.622C151.406 54.144 147.3 51.3806 142.777 49.4895C138.254 47.5985 133.403 46.6168 128.501 46.6005C123.598 46.5843 118.741 47.5338 114.205 49.3949C109.67 51.2559 105.546 53.992 102.068 57.4471C98.5896 60.9021 95.8262 65.0083 93.9351 69.5313C92.0441 74.0542 91.0624 78.9054 91.0462 83.8078C91.0459 83.8902 91.0459 83.9727 91.0462 84.0551V111.914C91.0477 113.243 91.5765 114.518 92.5166 115.458C93.4567 116.398 94.7313 116.927 96.0608 116.929H160.693C162.023 116.927 163.297 116.398 164.238 115.458C165.178 114.518 165.706 113.243 165.708 111.914Z" fill="#2F2E41"/>
<path d="M136.048 116.28C120.932 116.28 108.679 104.026 108.679 88.91C108.679 73.7942 120.932 61.5404 136.048 61.5404C151.164 61.5404 163.418 73.7942 163.418 88.91C163.418 104.026 151.164 116.28 136.048 116.28Z" fill="#9F616A"/>
<path d="M174.54 86.2838C174.531 78.4546 171.417 70.9485 165.881 65.4123C160.344 59.8762 152.838 56.7621 145.009 56.7533H139.437C131.608 56.7621 124.102 59.8762 118.565 65.4123C113.029 70.9485 109.915 78.4546 109.907 86.2838V86.8409H121.682L125.698 75.5934L126.501 86.8409H132.586L134.613 81.1668L135.019 86.8409H174.54V86.2838Z" fill="#2F2E41"/>
<path d="M138.742 120.062C139.294 119.313 139.625 118.424 139.694 117.496C139.763 116.568 139.569 115.639 139.134 114.816C133.23 103.586 124.963 82.834 135.936 70.0363L136.723 69.1178H104.866V116.946L133.805 122.052C134.098 122.104 134.395 122.13 134.692 122.13C135.483 122.13 136.261 121.943 136.965 121.584C137.668 121.224 138.277 120.703 138.74 120.063L138.742 120.062Z" fill="#2F2E41"/>
<path d="M368.904 10.2576C371.546 10.2574 374.128 11.0406 376.324 12.508C378.52 13.9753 380.232 16.061 381.243 18.5013C382.254 20.9416 382.519 23.6269 382.004 26.2176C381.488 28.8083 380.217 31.188 378.349 33.0559C376.481 34.9237 374.102 36.1958 371.511 36.7113C368.92 37.2267 366.235 36.9624 363.795 35.9517C361.354 34.941 359.268 33.2293 357.801 31.0332C356.333 28.837 355.55 26.2549 355.55 23.6135V23.6128C355.55 21.859 355.895 20.1223 356.566 18.502C357.237 16.8816 358.221 15.4094 359.461 14.1692C360.701 12.9291 362.174 11.9453 363.794 11.2742C365.414 10.603 367.151 10.2576 368.905 10.2576H368.904ZM368.904 14.2638C368.112 14.2638 367.337 14.4987 366.678 14.9389C366.02 15.3791 365.506 16.0048 365.203 16.7369C364.9 17.4689 364.82 18.2744 364.975 19.0516C365.129 19.8287 365.511 20.5425 366.071 21.1028C366.632 21.6631 367.345 22.0446 368.122 22.1992C368.9 22.3538 369.705 22.2745 370.437 21.9713C371.169 21.668 371.795 21.1546 372.235 20.4957C372.675 19.8369 372.91 19.0624 372.91 18.27C372.91 17.2075 372.488 16.1885 371.737 15.4372C370.986 14.6859 369.967 14.2638 368.904 14.2638ZM368.904 33.5515C370.487 33.5443 372.044 33.151 373.44 32.4058C374.837 31.6606 376.03 30.5859 376.917 29.2751C376.853 26.6041 371.575 25.1338 368.904 25.1338C366.233 25.1338 360.955 26.6041 360.891 29.2751C361.779 30.585 362.973 31.6589 364.369 32.404C365.765 33.149 367.322 33.5429 368.904 33.5515Z" fill="#EE6C4D"/>
<path d="M368.749 120.56C363.247 110.477 350.067 104.092 339.285 109.847C334.432 112.438 330.574 117.019 329.349 122.435C327.928 128.726 330.923 134.724 334.014 140.009C335.692 142.878 337.53 145.688 338.919 148.714C340.357 151.848 341.385 155.469 340.302 158.878C339.328 161.949 336.884 164.182 334.208 165.824C331.255 167.567 328.114 168.97 324.844 170.006C318.115 172.244 311.017 173.163 303.939 172.711C300.422 172.472 296.934 171.908 293.52 171.027C289.889 170.101 286.325 168.928 282.688 168.022C276.615 166.514 269.691 165.764 263.932 168.794C258.338 171.738 255.834 177.897 255.06 183.888C253.63 194.951 258.016 206.432 265.936 214.179C269.736 217.896 274.517 220.967 279.725 222.223C284.269 223.319 290.104 223.249 293.721 219.852C297.756 216.061 296.806 209.982 293.602 205.982C289.511 200.878 282.58 199.652 276.396 199.528C269.361 199.387 262.332 200.434 255.301 199.783C251.869 199.516 248.501 198.704 245.325 197.377C242.533 196.148 239.986 194.425 237.807 192.289C233.467 188.072 230.539 182.454 229.083 176.613C227.33 169.588 227.712 162.205 229.073 155.15C229.798 151.511 230.732 147.918 231.87 144.386C232.34 142.896 234.693 143.534 234.219 145.034C230.029 158.322 227.693 173.686 235.789 186.023C239.139 191.255 244.359 195.012 250.383 196.529C257.39 198.27 264.743 197.409 271.867 197.15C278.64 196.904 286.078 197.17 291.885 201.115C296.648 204.351 299.98 210.505 298.54 216.316C297.152 221.919 291.767 224.762 286.381 225.199C280.73 225.66 275.169 223.763 270.423 220.798C260.551 214.628 253.987 203.779 252.613 192.276C251.897 186.282 252.626 179.826 255.344 174.386C256.776 171.441 259.005 168.957 261.778 167.215C264.544 165.52 267.738 164.685 270.945 164.39C278.233 163.719 285.235 166.221 292.148 168.135C295.68 169.16 299.3 169.851 302.961 170.199C306.513 170.493 310.087 170.435 313.628 170.025C317.142 169.61 320.605 168.842 323.965 167.731C327.257 166.713 330.409 165.288 333.348 163.489C335.94 161.831 338.183 159.456 338.31 156.221C338.449 152.712 336.679 149.43 334.997 146.472C331.672 140.629 327.566 134.913 326.699 128.072C325.94 122.088 328.348 116.191 332.506 111.923C334.59 109.756 337.098 108.044 339.875 106.892C342.651 105.74 345.635 105.174 348.641 105.229C354.81 105.406 360.717 108.088 365.254 112.209C367.505 114.253 369.398 116.659 370.858 119.327C371.609 120.703 369.506 121.934 368.754 120.556L368.749 120.56Z" fill="#3F3D56"/>
</svg>
