<svg width="250" height="110" viewBox="0 0 250 110" fill="none" xmlns="http://www.w3.org/2000/svg">
<path d="M37.3469 104.085L40.6071 110L43.8418 104.133C42.875 104.212 41.9005 104.26 40.9133 104.26C39.7092 104.26 38.5204 104.199 37.3469 104.085Z" fill="#333269"/>
<path d="M51.3954 86.632H50.9439C49.4258 86.631 47.9278 86.2861 46.5634 85.6235C45.1991 84.9608 44.004 83.9977 43.0689 82.8072C42.8265 82.489 42.5143 82.2301 42.1563 82.0501C41.7982 81.8701 41.4036 81.7738 41.0025 81.7684H40.8163C40.4152 81.7738 40.0207 81.8701 39.6626 82.0501C39.3045 82.2301 38.9924 82.489 38.75 82.8072C37.8148 83.9977 36.6198 84.9608 35.2554 85.6235C33.891 86.2861 32.3931 86.631 30.875 86.632H30.4235C29.3885 86.6303 28.3628 86.4383 27.3979 86.0656L35.5178 100.796C38.8629 101.343 42.2724 101.377 45.6276 100.895L53.6658 86.3221C52.9268 86.5282 52.1629 86.6324 51.3954 86.632Z" fill="#333269"/>
<path d="M40.9133 34.3496C22.3954 34.3496 7.32654 49.3491 7.32654 67.7849C7.32654 82.9876 17.574 95.841 31.5485 99.8893L26.7857 91.2314C22.7095 88.7984 19.3373 85.3538 16.9991 81.2344C14.6608 77.115 13.4366 72.4619 13.4461 67.7303C13.4556 62.9986 14.6986 58.3505 17.0533 54.2404C19.4081 50.1304 22.7941 46.6992 26.8801 44.2824V78.2205C26.8801 79.1635 27.2564 80.0679 27.9262 80.7347C28.5959 81.4015 29.5043 81.7761 30.4515 81.7761H30.9031C32.2677 81.7761 33.5765 81.2364 34.5414 80.2757C35.5064 79.3151 36.0485 78.0121 36.0485 76.6535V40.869C39.2784 40.2798 42.589 40.2798 45.8189 40.869V76.6459C45.8189 78.0045 46.361 79.3074 47.3259 80.2681C48.2909 81.2288 49.5997 81.7685 50.9643 81.7685H51.4158C52.363 81.7685 53.2714 81.3939 53.9412 80.7271C54.611 80.0603 54.9873 79.1559 54.9873 78.2129V44.2824C59.1482 46.7439 62.5819 50.2565 64.9403 54.4644C67.2987 58.6723 68.4981 63.4261 68.4171 68.244C68.336 73.062 66.9774 77.7731 64.4787 81.9C61.9801 86.0269 58.4302 89.4231 54.1888 91.7445L49.5816 100.095C63.926 96.2855 74.5281 83.2491 74.5281 67.7849C74.4898 49.3491 59.4388 34.3496 40.9133 34.3496Z" fill="#333269"/>
<path d="M26.7857 18.6364L25.3495 19.7589V34.9566L31.227 32.6556C37.4537 30.2245 44.3729 30.2245 50.5995 32.6556L56.4847 34.954V19.7589L55.0485 18.6364C51.0164 15.4891 46.0407 13.7787 40.9171 13.7787C35.7935 13.7787 30.8178 15.4891 26.7857 18.6364Z" fill="#333269"/>
<path d="M12.824 11.8553L0 17.3259L12.824 22.4129V11.8553Z" fill="#333269"/>
<path d="M16.7934 34.3495C18.9311 34.3495 18.9311 32.5717 18.9311 30.3978C18.9311 28.8739 18.4567 27.533 17.7653 26.8803C18.4541 26.6263 18.9311 26.1184 18.9311 25.5342C18.9246 25.2188 18.7968 24.9179 18.574 24.6936L22.2883 26.1691V18.2783L24.8954 16.2465C29.4651 12.6776 35.1053 10.7379 40.9133 10.7379C46.7213 10.7379 52.3615 12.6776 56.9311 16.2465L59.5383 18.2783V25.9253L81.222 17.3259L40.6072 0L21.3725 8.20579H15.8776V24.1653C15.1556 24.4193 14.6556 24.9272 14.6556 25.5342C14.6556 26.1412 15.1327 26.6288 15.8215 26.8803C15.1301 27.533 14.6556 28.8612 14.6556 30.3978C14.6556 32.5794 14.6556 34.3495 16.7934 34.3495Z" fill="#333269"/>
<path d="M93.8291 83.1957C94.426 77.07 94.8623 71.9406 95.1378 67.8076C95.4133 63.6747 95.6879 58.183 95.9618 51.3326C96.2373 44.4838 96.375 39.9428 96.375 37.7096L96.3393 34.5756C101.967 34.623 108.776 34.6467 116.765 34.6467C124.134 34.6467 130.633 34.623 136.26 34.5756L136.189 35.7464C136.165 36.0308 136.105 37.0602 136.01 38.8347L135.796 42.7052C135.747 43.5331 135.723 44.3729 135.725 45.2246C131.122 45.0349 127.259 44.9401 124.133 44.9401C120.699 44.9401 118.379 44.946 117.173 44.9579C115.968 44.9697 114.089 45.0231 111.538 45.1179L111.105 53.311C113.919 53.3821 117.2 53.4177 120.946 53.4177C122.28 53.4177 125.834 53.333 131.61 53.1637C131.373 56.2113 131.147 59.8321 130.931 64.026C126.807 63.9803 123.637 63.9566 121.421 63.9549C118.13 63.9549 114.446 64.0396 110.37 64.2089L109.949 72.854H114.056C115.272 72.854 117.787 72.8185 121.602 72.7474L129 72.5671C130.097 72.545 131.932 72.4502 134.505 72.2826C134.219 75.7976 133.981 79.431 133.791 83.183C127.969 83.1339 121.592 83.1102 114.658 83.1119L98.9158 83.1475L93.8291 83.1957Z" fill="#333269"/>
<path d="M142.237 83.1958C142.765 77.7777 143.124 73.4442 143.316 70.195C143.604 65.3493 143.892 59.0846 144.181 51.4012C144.395 45.5124 144.503 41.2974 144.505 38.756V34.5629C147.293 34.634 149.701 34.6696 151.73 34.6696C153.687 34.6696 156.251 34.6163 159.421 34.5096C162.591 34.4029 165.571 34.3496 168.362 34.3496C171.175 34.3231 173.985 34.5133 176.768 34.9185C179.141 35.2862 181.426 36.0833 183.51 37.2703C185.571 38.4351 187.358 40.0259 188.75 41.9357C190.214 43.9794 191.304 46.2648 191.969 48.6862C192.709 51.2751 193.082 53.9542 193.077 56.6457C193.086 59.255 192.798 61.857 192.219 64.4019C191.701 66.7293 190.896 68.9839 189.822 71.1144C188.876 72.9905 187.665 74.7217 186.225 76.2548C184.841 77.7013 183.256 78.9432 181.518 79.9424C180.262 80.6764 178.931 81.2724 177.546 81.7202C176.211 82.1469 174.387 82.4914 172.074 82.7539C169.163 83.0602 166.236 83.2077 163.309 83.1958L148.855 83.0891C147.494 83.0806 145.288 83.1162 142.237 83.1958ZM157.704 72.4731C159.015 72.5917 160.386 72.6509 161.816 72.6509C164.003 72.6757 166.185 72.4611 168.324 72.0109C170.225 71.5879 171.967 70.6368 173.347 69.268C174.852 67.7651 175.953 65.9091 176.549 63.8711C177.238 61.6876 177.587 59.4119 177.584 57.1231C177.584 54.2973 177.074 51.9167 176.054 49.9815C175.033 48.0462 173.668 46.6985 171.959 45.9383C170.259 45.1781 167.939 44.7979 165 44.7979C163.281 44.7979 161.253 44.8691 158.916 45.0113L157.704 72.4731Z" fill="#333269"/>
<path d="M200.992 34.5629C204.712 34.6103 207.334 34.634 208.86 34.634C210.766 34.634 213.305 34.6103 216.477 34.5629L215.411 49.6995C215.2 52.5491 215.041 55.2208 214.934 57.7148C214.827 60.2088 214.773 61.9299 214.773 62.8781C214.746 64.3953 214.878 65.9111 215.166 67.4013C215.386 68.5326 215.877 69.5945 216.597 70.4972C217.358 71.3876 218.355 72.0475 219.475 72.402C220.71 72.8294 222.009 73.0441 223.316 73.0369C224.406 73.043 225.49 72.8837 226.531 72.5645C227.285 72.326 227.997 71.9685 228.638 71.5055C229.185 71.0824 229.667 70.5819 230.069 70.0197C230.624 69.2376 231.069 68.383 231.39 67.48C231.83 66.2764 232.119 65.0233 232.25 63.7492C232.464 62.1932 232.75 58.6579 233.107 53.1434C233.418 48.45 233.657 44.1528 233.824 40.2518C233.967 36.4626 234.098 34.5679 234.217 34.5679H250L248.26 59.8558C248.237 60.3333 248.227 60.7244 248.227 61.0317C248.13 65.9723 247.826 69.4576 247.314 71.4877C246.852 73.4113 245.982 75.2143 244.763 76.7753C243.572 78.2704 241.83 79.6181 239.536 80.8186C237.086 82.068 234.453 82.9251 231.735 83.3583C228.815 83.8619 225.858 84.1168 222.895 84.1202C220.308 84.1266 217.724 83.9356 215.166 83.5487C213.048 83.2164 210.972 82.6613 208.972 81.8929C207.275 81.2462 205.665 80.3932 204.179 79.3531C203.081 78.5923 202.113 77.6601 201.314 76.5925C200.604 75.5602 200.074 74.4167 199.745 73.2096C199.301 71.6672 199.079 70.0699 199.087 68.4654C199.087 67.894 199.112 67.033 199.158 65.8825C199.204 64.732 199.316 63.0736 199.482 60.9123L199.952 55.2132C200.069 53.7182 200.2 51.5222 200.344 48.6252L200.992 34.5629Z" fill="#333269"/>
<path d="M98.551 101.073H93.8291V92.2015H98.3521V93.1412H94.8725V96.0924H98.0918V97.027H94.8725V100.133H98.551V101.073Z" fill="#333269"/>
<path d="M105.411 101.073H104.39V97.4613C104.39 96.1152 103.897 95.443 102.911 95.4447C102.669 95.4381 102.428 95.4861 102.207 95.5851C101.986 95.684 101.791 95.8314 101.635 96.0162C101.291 96.4182 101.109 96.9333 101.125 97.4613V101.073H100.105V94.7387H101.125V95.7901H101.151C101.352 95.417 101.654 95.107 102.023 94.8949C102.391 94.6828 102.812 94.5768 103.237 94.5888C103.538 94.5705 103.838 94.6217 104.115 94.7385C104.392 94.8553 104.638 95.0344 104.834 95.2619C105.205 95.7089 105.389 96.3548 105.388 97.1997L105.411 101.073Z" fill="#333269"/>
<path d="M106.946 100.844V99.7547C107.473 100.154 108.116 100.369 108.778 100.367C109.673 100.367 110.122 100.072 110.122 99.4779C110.126 99.3256 110.086 99.1756 110.005 99.0461C109.923 98.9233 109.818 98.8173 109.696 98.7337C109.552 98.6337 109.397 98.5486 109.235 98.4798L108.668 98.2537C108.414 98.155 108.166 98.0431 107.923 97.9185C107.731 97.8193 107.555 97.6936 107.398 97.5451C107.258 97.4058 107.148 97.24 107.074 97.0575C106.999 96.8536 106.962 96.6373 106.967 96.4201C106.961 96.1439 107.032 95.8715 107.171 95.6327C107.309 95.4034 107.495 95.2066 107.717 95.0562C107.956 94.8979 108.22 94.7803 108.497 94.7083C108.793 94.6288 109.097 94.5887 109.403 94.5889C109.91 94.5813 110.413 94.6782 110.88 94.8734V95.8893C110.399 95.5805 109.837 95.4213 109.265 95.4321C109.093 95.43 108.921 95.4514 108.755 95.4956C108.614 95.5332 108.48 95.595 108.36 95.6785C108.255 95.7524 108.168 95.8487 108.105 95.9604C108.045 96.0714 108.015 96.1953 108.015 96.321C108.011 96.465 108.042 96.6079 108.105 96.7375C108.168 96.8526 108.255 96.953 108.36 97.0321C108.489 97.1282 108.631 97.2076 108.781 97.2683C108.951 97.3394 109.139 97.4156 109.347 97.4969C109.608 97.5937 109.863 97.7039 110.112 97.827C110.319 97.9287 110.511 98.0577 110.684 98.2105C110.837 98.3485 110.962 98.5161 111.048 98.7033C111.138 98.9127 111.181 99.1387 111.176 99.3661C111.183 99.6519 111.111 99.9341 110.967 100.181C110.828 100.413 110.638 100.61 110.411 100.758C110.165 100.916 109.894 101.031 109.61 101.098C109.298 101.173 108.979 101.211 108.658 101.21C108.066 101.23 107.478 101.104 106.946 100.844Z" fill="#333269"/>
<path d="M113.265 93.1312C113.179 93.1323 113.093 93.1163 113.013 93.084C112.933 93.0518 112.86 93.0039 112.798 92.9433C112.735 92.8826 112.686 92.8095 112.653 92.7285C112.62 92.6476 112.604 92.5607 112.607 92.4734C112.605 92.3859 112.621 92.2988 112.654 92.2176C112.687 92.1363 112.736 92.0626 112.798 92.001C112.86 91.9404 112.933 91.8925 113.013 91.8603C113.093 91.828 113.179 91.812 113.265 91.8131C113.353 91.8115 113.44 91.8273 113.522 91.8596C113.603 91.8919 113.677 91.9399 113.74 92.001C113.804 92.0616 113.855 92.135 113.889 92.2164C113.922 92.2978 113.939 92.3854 113.936 92.4734C113.938 92.5603 113.922 92.6466 113.888 92.7267C113.854 92.8068 113.804 92.8788 113.74 92.9382C113.678 93.0004 113.604 93.0496 113.522 93.0828C113.441 93.1159 113.353 93.1324 113.265 93.1312ZM113.763 101.073H112.742V94.7388H113.763V101.073Z" fill="#333269"/>
<path d="M121.094 101.073H120.074V97.4613C120.074 96.1152 119.581 95.443 118.594 95.4447C118.352 95.4381 118.112 95.4861 117.891 95.5851C117.67 95.684 117.475 95.8314 117.319 96.0162C116.975 96.4182 116.793 96.9333 116.809 97.4613V101.073H115.788V94.7387H116.809V95.7901H116.834C117.036 95.417 117.338 95.107 117.707 94.8949C118.075 94.6828 118.495 94.5768 118.921 94.5888C119.221 94.5705 119.522 94.6217 119.799 94.7385C120.076 94.8553 120.322 95.0344 120.518 95.2619C120.889 95.7089 121.073 96.3548 121.072 97.1997L121.094 101.073Z" fill="#333269"/>
<path d="M125.673 101.228C125.256 101.246 124.84 101.177 124.451 101.024C124.063 100.87 123.712 100.637 123.421 100.339C122.841 99.6941 122.539 98.8487 122.579 97.9844C122.579 96.9194 122.872 96.0889 123.457 95.493C123.767 95.1879 124.138 94.9504 124.545 94.7956C124.953 94.6408 125.388 94.5721 125.824 94.5939C126.773 94.5939 127.514 94.8851 128.046 95.4676C128.578 96.05 128.844 96.8559 128.844 97.8854C128.888 98.7759 128.578 99.6478 127.982 100.313C127.685 100.621 127.325 100.861 126.927 101.019C126.529 101.176 126.102 101.248 125.673 101.228ZM125.75 95.4498C125.458 95.4363 125.166 95.489 124.897 95.6038C124.628 95.7186 124.388 95.8926 124.196 96.1126C123.789 96.6355 123.586 97.2881 123.625 97.9488C123.588 98.5922 123.794 99.2262 124.202 99.7266C124.396 99.9417 124.635 100.111 124.903 100.223C125.171 100.335 125.46 100.387 125.75 100.374C126.035 100.391 126.32 100.343 126.583 100.233C126.846 100.123 127.081 99.9539 127.268 99.7393C127.627 99.3076 127.806 98.7031 127.806 97.926C127.806 97.1488 127.629 96.5385 127.276 96.0949C127.09 95.8758 126.855 95.703 126.59 95.5902C126.325 95.4773 126.038 95.4275 125.75 95.4447V95.4498Z" fill="#333269"/>
<path d="M138.52 101.073H137.5V100.082H137.477C137.291 100.438 137.008 100.735 136.66 100.938C136.312 101.14 135.913 101.241 135.51 101.228C134.967 101.258 134.433 101.076 134.023 100.72C133.843 100.55 133.702 100.343 133.609 100.114C133.516 99.8846 133.474 99.6383 133.485 99.3914C133.485 98.2063 134.185 97.5172 135.584 97.3241L137.492 97.0575C137.492 95.9806 137.056 95.4448 136.181 95.4448C135.418 95.4438 134.68 95.7201 134.107 96.2219V95.1832C134.754 94.7806 135.505 94.5741 136.268 94.5889C137.764 94.5889 138.513 95.377 138.513 96.9533L138.52 101.073ZM137.5 97.8676L135.969 98.0784C135.591 98.1119 135.225 98.2318 134.901 98.4289C134.772 98.5357 134.671 98.6724 134.608 98.827C134.545 98.9816 134.521 99.1493 134.538 99.3153C134.534 99.459 134.561 99.6019 134.619 99.7337C134.677 99.8654 134.764 99.9828 134.872 100.077C135.12 100.282 135.436 100.387 135.758 100.369C135.992 100.376 136.226 100.332 136.442 100.241C136.658 100.15 136.852 100.013 137.01 99.841C137.344 99.4761 137.521 98.9956 137.503 98.5026L137.5 97.8676Z" fill="#333269"/>
<path d="M144.054 101.073V92.2015H146.515C149.655 92.2015 151.225 93.6407 151.225 96.519C151.225 97.8871 150.789 98.9876 149.918 99.8207C149.048 100.654 147.884 101.071 146.429 101.073H144.054ZM145.1 93.1412V100.133H146.429C147.597 100.133 148.506 99.8215 149.156 99.1984C149.805 98.5754 150.131 97.6932 150.133 96.5521C150.133 94.2782 148.918 93.1412 146.49 93.1412H145.1Z" fill="#333269"/>
<path d="M153.362 93.1312C153.276 93.1325 153.191 93.1166 153.111 93.0843C153.031 93.052 152.959 93.004 152.898 92.9432C152.834 92.8831 152.784 92.8101 152.75 92.7291C152.717 92.6481 152.701 92.5609 152.704 92.4734C152.703 92.3867 152.719 92.3007 152.751 92.2203C152.784 92.1399 152.832 92.0668 152.894 92.0053C152.955 91.9437 153.028 91.895 153.108 91.862C153.189 91.829 153.275 91.8124 153.362 91.8131C153.54 91.8103 153.712 91.8779 153.839 92.001C153.903 92.0621 153.953 92.1356 153.986 92.217C154.019 92.2983 154.035 92.3856 154.033 92.4734C154.035 92.56 154.019 92.6461 153.985 92.7261C153.952 92.8061 153.902 92.8783 153.839 92.9382C153.777 93.0002 153.702 93.0493 153.62 93.0824C153.538 93.1156 153.451 93.1321 153.362 93.1312ZM153.872 101.073H152.852V94.7388H153.872V101.073Z" fill="#333269"/>
<path d="M155.538 100.844V99.7546C156.065 100.154 156.708 100.369 157.37 100.367C158.265 100.367 158.714 100.072 158.714 99.4778C158.719 99.3254 158.679 99.175 158.597 99.046C158.515 98.9232 158.41 98.8172 158.288 98.7336C158.143 98.6336 157.989 98.5485 157.827 98.4797L157.26 98.2536C157.006 98.1549 156.758 98.043 156.515 97.9184C156.32 97.8167 156.141 97.6875 155.982 97.5349C155.843 97.3956 155.732 97.2298 155.658 97.0473C155.583 96.8433 155.546 96.6271 155.551 96.4098C155.545 96.1337 155.616 95.8613 155.755 95.6225C155.893 95.3931 156.079 95.1964 156.301 95.046C156.54 94.8877 156.804 94.7701 157.082 94.698C157.377 94.6186 157.681 94.5784 157.987 94.5787C158.495 94.5756 158.998 94.6777 159.464 94.8784V95.8942C158.984 95.5855 158.421 95.4263 157.85 95.4371C157.677 95.435 157.506 95.4564 157.339 95.5006C157.198 95.5382 157.064 95.6 156.944 95.6835C156.839 95.7574 156.752 95.8537 156.689 95.9654C156.63 96.0764 156.599 96.2003 156.6 96.326C156.595 96.47 156.626 96.6129 156.689 96.7425C156.752 96.8576 156.839 96.958 156.944 97.0371C157.074 97.1332 157.215 97.2125 157.365 97.2733C157.535 97.3444 157.724 97.4206 157.931 97.5019C158.192 97.5987 158.447 97.7089 158.696 97.832C158.903 97.9337 159.096 98.0627 159.268 98.2155C159.423 98.3528 159.547 98.5206 159.633 98.7082C159.722 98.9176 159.766 99.1436 159.76 99.3711C159.768 99.6569 159.695 99.9391 159.551 100.186C159.412 100.418 159.222 100.615 158.995 100.763C158.75 100.921 158.479 101.036 158.194 101.103C157.882 101.178 157.563 101.216 157.242 101.215C156.652 101.232 156.067 101.105 155.538 100.844Z" fill="#333269"/>
<path d="M164.286 101.012C163.99 101.156 163.663 101.224 163.334 101.21C162.219 101.21 161.662 100.591 161.663 99.3534V95.6048H160.569V94.7388H161.663V93.1921L162.684 92.8645V94.7388H164.286V95.6048H162.681V99.1731C162.654 99.4915 162.73 99.8103 162.898 100.082C162.989 100.181 163.101 100.257 163.227 100.304C163.352 100.352 163.487 100.37 163.62 100.357C163.859 100.362 164.094 100.288 164.286 100.146V101.012Z" fill="#333269"/>
<path d="M170.189 101.073H169.168V100.082H169.143C168.958 100.436 168.676 100.731 168.33 100.933C167.983 101.135 167.587 101.235 167.186 101.223C166.643 101.253 166.109 101.071 165.699 100.715C165.519 100.544 165.378 100.338 165.285 100.109C165.192 99.8795 165.15 99.6332 165.161 99.3864C165.161 98.2012 165.861 97.5121 167.26 97.319L169.168 97.0524C169.168 95.9755 168.732 95.4397 167.857 95.4397C167.093 95.4388 166.355 95.7151 165.781 96.2168V95.1832C166.429 94.781 167.18 94.5745 167.944 94.5889C169.439 94.5889 170.186 95.377 170.186 96.9533L170.189 101.073ZM169.612 93.5374H168.847L167.827 92.1152L166.806 93.5374H166.105L167.441 91.4854H168.268L169.612 93.5374ZM169.171 97.8549L167.64 98.0657C167.262 98.1 166.896 98.2198 166.571 98.4162C166.443 98.5232 166.343 98.66 166.28 98.8146C166.218 98.9692 166.194 99.1368 166.212 99.3026C166.207 99.446 166.235 99.5887 166.292 99.7204C166.349 99.8521 166.435 99.9696 166.543 100.064C166.792 100.269 167.109 100.373 167.431 100.357C167.665 100.363 167.898 100.319 168.114 100.228C168.33 100.137 168.523 100.001 168.681 99.8283C169.015 99.4636 169.193 98.9832 169.176 98.4898L169.171 97.8549Z" fill="#333269"/>
<path d="M177.393 101.073H176.372V97.4613C176.372 96.1153 175.879 95.4431 174.893 95.4448C174.651 95.4378 174.41 95.4856 174.189 95.5846C173.968 95.6836 173.773 95.8311 173.617 96.0162C173.272 96.4177 173.09 96.9331 173.107 97.4613V101.073H172.087V94.7387H173.107V95.7902H173.13C173.332 95.4166 173.634 95.1064 174.003 94.8943C174.372 94.6821 174.793 94.5764 175.219 94.5889C175.52 94.5708 175.82 94.6221 176.097 94.7388C176.374 94.8556 176.62 95.0346 176.816 95.2619C177.184 95.7089 177.37 96.354 177.37 97.1997L177.393 101.073Z" fill="#333269"/>
<path d="M183.648 100.783C183.12 101.086 182.518 101.238 181.908 101.223C181.5 101.239 181.094 101.168 180.715 101.016C180.337 100.865 179.995 100.634 179.712 100.341C179.143 99.7181 178.843 98.897 178.878 98.0556C178.834 97.1322 179.157 96.2287 179.778 95.5413C180.089 95.2227 180.464 94.9733 180.879 94.8096C181.293 94.6458 181.738 94.5715 182.184 94.5914C182.693 94.5814 183.199 94.6874 183.661 94.9013V95.94C183.22 95.622 182.69 95.4497 182.146 95.4473C181.844 95.4383 181.544 95.4961 181.267 95.6164C180.991 95.7367 180.744 95.9167 180.546 96.1432C180.113 96.6514 179.89 97.3038 179.921 97.9693C179.885 98.608 180.095 99.2363 180.508 99.7267C180.708 99.9414 180.953 100.11 181.225 100.221C181.497 100.332 181.79 100.383 182.084 100.369C182.652 100.365 183.203 100.172 183.648 99.8207V100.783Z" fill="#333269"/>
<path d="M185.714 93.1312C185.628 93.1323 185.542 93.1163 185.462 93.084C185.382 93.0518 185.309 93.0039 185.247 92.9433C185.184 92.8826 185.135 92.8095 185.102 92.7285C185.069 92.6476 185.053 92.5607 185.056 92.4734C185.054 92.3859 185.07 92.2988 185.103 92.2176C185.136 92.1363 185.185 92.0626 185.247 92.001C185.309 91.9404 185.382 91.8925 185.462 91.8603C185.542 91.828 185.628 91.812 185.714 91.8131C185.802 91.8115 185.889 91.8273 185.971 91.8596C186.052 91.8919 186.126 91.9399 186.189 92.001C186.253 92.0616 186.304 92.135 186.338 92.2164C186.371 92.2978 186.388 92.3854 186.385 92.4734C186.387 92.5603 186.371 92.6466 186.337 92.7267C186.303 92.8068 186.253 92.8788 186.189 92.9382C186.127 93.0004 186.053 93.0496 185.971 93.0828C185.89 93.1159 185.802 93.1324 185.714 93.1312ZM186.225 101.073H185.204V94.7388H186.225V101.073Z" fill="#333269"/>
<path d="M192.827 101.073H191.806V100.082H191.781C191.595 100.436 191.313 100.731 190.967 100.932C190.621 101.134 190.225 101.235 189.824 101.223C189.28 101.253 188.745 101.071 188.334 100.715C188.155 100.544 188.015 100.337 187.922 100.108C187.83 99.8791 187.788 99.633 187.799 99.3864C187.799 98.2012 188.498 97.5121 189.898 97.3191L191.806 97.0524C191.806 95.9756 191.367 95.4397 190.495 95.4397C189.731 95.4384 188.992 95.7147 188.418 96.2168V95.1832C189.066 94.7806 189.818 94.5741 190.582 94.5889C192.077 94.5889 192.824 95.377 192.824 96.9534L192.827 101.073ZM191.806 97.8677L190.276 98.0785C189.897 98.1123 189.531 98.2322 189.207 98.4289C189.078 98.5359 188.978 98.6728 188.916 98.8274C188.853 98.9819 188.829 99.1495 188.847 99.3153C188.842 99.4588 188.869 99.6017 188.927 99.7335C188.984 99.8653 189.07 99.9827 189.179 100.077C189.426 100.282 189.742 100.387 190.064 100.369C190.298 100.376 190.532 100.332 190.748 100.241C190.964 100.15 191.158 100.013 191.316 99.841C191.651 99.4764 191.828 98.996 191.811 98.5026L191.806 97.8677Z" fill="#333269"/>
<path d="M204.888 97.4841C204.888 99.9764 203.759 101.223 201.503 101.223C199.339 101.223 198.258 100.024 198.258 97.6263V92.2015H199.301V97.5603C199.301 99.3787 200.071 100.288 201.612 100.288C203.099 100.288 203.843 99.4092 203.844 97.6517V92.2015H204.888V97.4841Z" fill="#333269"/>
<path d="M212.258 101.073H211.237V97.4613C211.237 96.1152 210.745 95.443 209.76 95.4447C209.518 95.4381 209.278 95.4861 209.057 95.5851C208.836 95.684 208.64 95.8314 208.485 96.0162C208.14 96.4176 207.958 96.9331 207.975 97.4613V101.073H206.954V94.7387H207.975V95.7901H208C208.202 95.417 208.504 95.107 208.872 94.8949C209.241 94.6828 209.661 94.5768 210.087 94.5888C210.387 94.5705 210.688 94.6217 210.965 94.7385C211.242 94.8553 211.488 95.0344 211.684 95.2619C212.054 95.7089 212.239 96.3548 212.237 97.1997L212.258 101.073Z" fill="#333269"/>
<path d="M214.699 93.1312C214.613 93.1323 214.527 93.1163 214.447 93.084C214.366 93.0517 214.294 93.0039 214.232 92.9432C214.169 92.8826 214.119 92.8094 214.087 92.7285C214.054 92.6476 214.038 92.5607 214.041 92.4734C214.039 92.3858 214.055 92.2988 214.088 92.2175C214.12 92.1363 214.17 92.0626 214.232 92.001C214.294 91.9404 214.366 91.8925 214.447 91.8602C214.527 91.828 214.613 91.8119 214.699 91.8131C214.877 91.8103 215.048 91.8779 215.176 92.001C215.239 92.0621 215.289 92.1356 215.323 92.217C215.356 92.2983 215.372 92.3856 215.37 92.4734C215.372 92.56 215.355 92.6461 215.322 92.7261C215.289 92.8061 215.239 92.8783 215.176 92.9382C215.113 93.0002 215.039 93.0493 214.957 93.0824C214.875 93.1156 214.787 93.1321 214.699 93.1312ZM215.209 101.073H214.189V94.7388H215.209V101.073Z" fill="#333269"/>
<path d="M220.408 92.5927C220.201 92.4789 219.968 92.4211 219.732 92.4251C219.018 92.4251 218.663 92.8746 218.663 93.7686V94.7464H220.153V95.6124H218.663V101.08H217.643V95.6048H216.556V94.7387H217.645V93.7229C217.629 93.4352 217.672 93.1473 217.771 92.8767C217.871 92.606 218.024 92.3582 218.222 92.1482C218.51 91.883 218.865 91.6998 219.248 91.6176C219.632 91.5354 220.031 91.5572 220.403 91.6809L220.408 92.5927Z" fill="#333269"/>
<path d="M221.765 93.1312C221.679 93.1328 221.593 93.1169 221.513 93.0846C221.432 93.0523 221.36 93.0043 221.299 92.9433C221.235 92.8828 221.185 92.8098 221.151 92.7288C221.118 92.6479 221.102 92.5609 221.105 92.4734C221.103 92.3865 221.119 92.3003 221.152 92.2197C221.185 92.1392 221.233 92.0659 221.295 92.0044C221.357 91.9428 221.43 91.8942 221.511 91.8613C221.591 91.8285 221.678 91.8121 221.765 91.8131C221.853 91.8115 221.94 91.8273 222.022 91.8596C222.103 91.8919 222.177 91.9399 222.24 92.001C222.304 92.0619 222.354 92.1354 222.388 92.2167C222.422 92.298 222.438 92.3854 222.436 92.4734C222.438 92.5602 222.421 92.6463 222.387 92.7263C222.353 92.8063 222.303 92.8785 222.24 92.9382C222.178 93.0004 222.104 93.0496 222.022 93.0828C221.941 93.1159 221.853 93.1324 221.765 93.1312ZM222.263 101.073H221.242V94.7388H222.263V101.073Z" fill="#333269"/>
<path d="M228.661 100.783C228.132 101.086 227.53 101.238 226.921 101.223C226.513 101.239 226.106 101.168 225.728 101.016C225.349 100.865 225.007 100.634 224.724 100.341C224.156 99.7181 223.856 98.897 223.89 98.0556C223.846 97.1322 224.17 96.2287 224.791 95.5413C225.102 95.2227 225.477 94.9733 225.891 94.8096C226.306 94.6458 226.751 94.5715 227.196 94.5914C227.706 94.5814 228.211 94.6874 228.674 94.9013V95.94C228.233 95.622 227.703 95.4497 227.158 95.4473C226.856 95.4383 226.557 95.4961 226.28 95.6164C226.003 95.7367 225.757 95.9167 225.559 96.1432C225.126 96.6514 224.903 97.3038 224.934 97.9693C224.898 98.608 225.108 99.2363 225.52 99.7267C225.721 99.9414 225.965 100.11 226.238 100.221C226.51 100.332 226.803 100.383 227.097 100.369C227.665 100.365 228.215 100.172 228.661 99.8207V100.783Z" fill="#333269"/>
<path d="M234.758 101.073H233.737V100.082H233.714C233.528 100.436 233.246 100.731 232.899 100.933C232.553 101.134 232.156 101.235 231.755 101.223C231.212 101.253 230.678 101.07 230.268 100.715C230.089 100.544 229.948 100.337 229.855 100.108C229.762 99.8793 229.719 99.6332 229.73 99.3864C229.73 98.2012 230.43 97.5121 231.832 97.3191L233.737 97.0524C233.737 95.9756 233.301 95.4397 232.429 95.4397C231.665 95.4384 230.926 95.7147 230.352 96.2168V95.1832C231 94.7806 231.752 94.5741 232.515 94.5889C234.01 94.5889 234.758 95.377 234.758 96.9534V101.073ZM233.737 97.8676L232.207 98.0784C231.828 98.1123 231.462 98.2322 231.138 98.4289C231.009 98.5359 230.909 98.6728 230.847 98.8273C230.784 98.9819 230.76 99.1495 230.778 99.3153C230.773 99.4588 230.8 99.6017 230.858 99.7335C230.915 99.8652 231.001 99.9827 231.11 100.077C231.357 100.282 231.673 100.387 231.995 100.369C232.23 100.376 232.463 100.332 232.679 100.241C232.895 100.15 233.089 100.013 233.248 99.841C233.581 99.4761 233.758 98.9956 233.74 98.5026L233.737 97.8676Z" fill="#333269"/>
<path d="M242.11 101.073H241.089V99.9959H241.072C240.861 100.387 240.543 100.711 240.154 100.929C239.766 101.147 239.323 101.251 238.878 101.228C238.514 101.241 238.152 101.172 237.819 101.024C237.487 100.877 237.192 100.655 236.959 100.377C236.483 99.808 236.244 99.0351 236.242 98.0581C236.242 97.0118 236.508 96.1728 237.038 95.5413C237.295 95.2323 237.62 94.9862 237.988 94.8219C238.355 94.6577 238.756 94.5797 239.158 94.594C239.541 94.5699 239.923 94.6536 240.26 94.8355C240.597 95.0175 240.875 95.2902 241.064 95.6225H241.089V91.6936H242.11V101.073ZM241.089 98.208V97.2759C241.095 97.0364 241.052 96.7981 240.965 96.575C240.877 96.3518 240.746 96.1481 240.579 95.9756C240.414 95.8013 240.213 95.664 239.991 95.5725C239.768 95.481 239.529 95.4375 239.288 95.4448C239.007 95.4327 238.727 95.4883 238.471 95.6067C238.216 95.7252 237.993 95.9031 237.822 96.1254C237.435 96.6738 237.246 97.3361 237.286 98.0048C237.251 98.6226 237.431 99.2335 237.796 99.7343C237.96 99.94 238.17 100.104 238.409 100.214C238.648 100.324 238.91 100.376 239.174 100.367C239.436 100.376 239.698 100.325 239.938 100.219C240.178 100.113 240.391 99.9544 240.561 99.7547C240.923 99.3215 241.111 98.7707 241.089 98.208Z" fill="#333269"/>
<path d="M246.832 101.228C246.414 101.247 245.998 101.177 245.61 101.024C245.221 100.871 244.87 100.637 244.579 100.339C244 99.6941 243.697 98.8487 243.737 97.9844C243.737 96.9194 244.029 96.0889 244.612 95.493C244.923 95.1879 245.293 94.9504 245.701 94.7956C246.109 94.6408 246.544 94.5721 246.98 94.5939C247.929 94.5939 248.669 94.8851 249.202 95.4676C249.734 96.05 250 96.8559 250 97.8854C250 98.9012 249.714 99.7106 249.14 100.313C248.843 100.62 248.483 100.861 248.085 101.018C247.687 101.176 247.26 101.247 246.832 101.228ZM246.906 95.4498C246.613 95.4363 246.322 95.489 246.053 95.6038C245.783 95.7186 245.544 95.8926 245.352 96.1126C244.945 96.636 244.742 97.2882 244.781 97.9489C244.744 98.5922 244.949 99.2262 245.357 99.7266C245.551 99.9416 245.791 100.111 246.059 100.223C246.326 100.335 246.616 100.387 246.906 100.374C247.193 100.393 247.48 100.345 247.746 100.235C248.011 100.125 248.248 99.9554 248.436 99.7393C248.788 99.3127 248.967 98.7082 248.967 97.926C248.967 97.1438 248.788 96.5241 248.436 96.0949C248.25 95.8754 248.014 95.7024 247.748 95.5896C247.483 95.4767 247.194 95.4271 246.906 95.4447V95.4498Z" fill="#333269"/>
</svg>
