<svg width="523" height="376" viewBox="0 0 523 376" fill="none" xmlns="http://www.w3.org/2000/svg">
<path d="M523 376C496.051 372.056 470.134 368.656 445.25 365.8L455.09 349.888C451.772 348.909 437.197 357.98 437.197 357.98L450.114 311.719C433.43 313.325 424.94 360.582 424.94 360.582L406.302 344.505L415.324 362.524C339.161 354.668 273.384 351.582 218.058 351.226L226.48 337.607C223.163 336.628 208.587 345.699 208.587 345.699L221.504 299.439C204.82 301.045 196.331 348.301 196.331 348.301L177.693 332.225L187.248 351.31C140.866 351.872 103.041 354.345 73.8464 357.23C82.366 335.993 111.3 315.891 111.3 315.891C89.2048 321.287 77.6136 330.445 71.5563 339.006C71.0933 312.734 74.2081 264.042 97.3498 210.226C97.3498 210.226 51.6688 293.156 57.4879 348.991L58.1835 358.904C19.4658 363.363 0 368.098 0 368.098L523 376Z" fill="#333269"/>
<path d="M278.097 15.06V350.174C278.093 354.166 276.504 357.993 273.678 360.815C270.852 363.637 267.021 365.223 263.027 365.224H126.882C124.903 365.227 122.942 364.84 121.113 364.085C119.284 363.331 117.621 362.222 116.221 360.824C114.821 359.426 113.711 357.766 112.954 355.938C112.197 354.111 111.809 352.152 111.811 350.174V15.06C111.811 13.0822 112.201 11.1238 112.958 9.29657C113.715 7.46933 114.825 5.80907 116.225 4.41058C117.624 3.0121 119.286 1.9028 121.114 1.14602C122.943 0.389249 124.903 -0.000170409 126.882 7.06558e-07H147.256V2.61081C147.255 5.89942 148.562 9.05354 150.889 11.3794C153.215 13.7053 156.371 15.0125 159.662 15.0134H228.906C231.555 15.0191 234.135 14.1706 236.263 12.5939C236.693 12.2813 237.101 11.9392 237.484 11.5703C238.696 10.4138 239.661 9.02331 240.319 7.4832C240.977 5.94309 241.315 4.28544 241.313 2.61081V7.06558e-07H263.027C265.006 -0.000605224 266.966 0.38852 268.795 1.14514C270.623 1.90176 272.285 3.01104 273.685 4.40961C275.084 5.80818 276.194 7.46862 276.951 9.29605C277.709 11.1235 278.098 13.0821 278.097 15.06Z" fill="#333269"/>
<path d="M149.739 59.4541C151.739 59.4541 153.361 57.8338 153.361 55.8351C153.361 53.8364 151.739 52.2162 149.739 52.2162C147.739 52.2162 146.118 53.8364 146.118 55.8351C146.118 57.8338 147.739 59.4541 149.739 59.4541Z" fill="#F2F2F2"/>
<path d="M237.484 11.5703C237.101 11.9393 236.693 12.2813 236.263 12.594C240.699 20.3937 246.708 27.1874 253.909 32.5441C261.111 37.9008 269.348 41.7037 278.097 43.7117V42.0987C269.584 40.0918 261.579 36.3427 254.589 31.0881C247.598 25.8336 241.774 19.1878 237.484 11.5703Z" fill="#EE6C4D"/>
<path d="M206.541 15.0134H204.844C210.868 30.3091 220.804 43.7571 233.659 54.0134C246.513 64.2696 261.837 70.975 278.097 73.4594V71.8567C262.26 69.399 247.335 62.8661 234.789 52.8999C222.244 42.9337 212.508 29.8772 206.541 15.0134Z" fill="#EE6C4D"/>
<path d="M175.281 15.0134H173.647C187.321 62.4423 228.58 97.7476 278.097 103.481V101.904C229.439 96.1967 188.888 61.5634 175.281 15.0134Z" fill="#EE6C4D"/>
<path d="M137.839 82.6267H136.897V81.6847H136.713V82.6267H135.77V82.8107H136.713V83.7527H136.897V82.8107H137.839V82.6267Z" fill="#F2F2F2"/>
<path d="M201.475 35.5804H200.533V34.6384H200.349V35.5804H199.406V35.7644H200.349V36.7064H200.533V35.7644H201.475V35.5804Z" fill="#F2F2F2"/>
<path d="M147.152 119.85H146.209V118.908H146.026V119.85H145.083V120.034H146.026V120.976H146.209V120.034H147.152V119.85Z" fill="#F2F2F2"/>
<path d="M190.611 92.4495H189.668V91.5076H189.484V92.4495H188.541V92.6336H189.484V93.5755H189.668V92.6336H190.611V92.4495Z" fill="#F2F2F2"/>
<path d="M252.695 109.51H251.752V108.568H251.568V109.51H250.625V109.694H251.568V110.636H251.752V109.694H252.695V109.51Z" fill="#F2F2F2"/>
<path d="M241.83 66.692C242.973 66.692 243.9 65.7661 243.9 64.624C243.9 63.4819 242.973 62.556 241.83 62.556C240.687 62.556 239.761 63.4819 239.761 64.624C239.761 65.7661 240.687 66.692 241.83 66.692Z" fill="#FF6584"/>
<path d="M167.692 113.118L166.517 113.299C166.885 115.646 167.174 118.045 167.386 120.418L168.571 120.314C168.359 117.91 168.064 115.491 167.692 113.118Z" fill="#E6E6E6"/>
<path d="M164.479 98.9833L163.341 99.3297C164.029 101.604 164.644 103.936 165.167 106.257L166.331 105.994C165.798 103.647 165.172 101.289 164.479 98.9833Z" fill="#E6E6E6"/>
<path d="M159.352 85.4277L158.271 85.924C159.264 88.0902 160.195 90.3133 161.038 92.5364L162.151 92.1176C161.297 89.8687 160.361 87.6146 159.352 85.4277Z" fill="#E6E6E6"/>
<path d="M152.419 72.7201L151.415 73.356C152.693 75.3619 153.919 77.4402 155.058 79.5237L156.103 78.955C154.954 76.8457 153.713 74.7467 152.419 72.7201Z" fill="#E6E6E6"/>
<path d="M143.8 61.0723L142.894 61.8426C144.436 63.6521 145.937 65.5442 147.354 67.4571L148.306 66.7488C146.878 64.8153 145.362 62.9024 143.8 61.0723Z" fill="#E6E6E6"/>
<path d="M133.67 50.7014L132.878 51.5855C134.658 53.1726 136.401 54.8425 138.062 56.5434L138.916 55.7111C137.234 53.9894 135.47 52.304 133.67 50.7014Z" fill="#E6E6E6"/>
<path d="M122.226 41.7988L121.558 42.7811C123.535 44.1098 125.49 45.5263 127.368 46.9894L128.103 46.0536C126.199 44.5751 124.223 43.143 122.226 41.7988Z" fill="#E6E6E6"/>
<path d="M111.811 35.6156V36.9598C113.048 37.606 114.274 38.2833 115.474 38.976L116.069 37.9472C114.672 37.1407 113.253 36.3635 111.811 35.6156Z" fill="#E6E6E6"/>
<path d="M167.423 224.79C167.616 223.634 167.792 222.453 167.948 221.282L169.127 221.438C168.97 222.623 168.791 223.816 168.596 224.985L167.423 224.79Z" fill="#E6E6E6"/>
<path d="M164.107 238.738L165.244 239.091C165.957 236.794 166.603 234.441 167.162 232.096L166.003 231.822C165.449 234.141 164.815 236.466 164.107 238.738Z" fill="#E6E6E6"/>
<path d="M158.912 252.092L159.991 252.598C161.018 250.423 161.978 248.181 162.85 245.937L161.739 245.504C160.878 247.724 159.928 249.941 158.912 252.092Z" fill="#E6E6E6"/>
<path d="M151.922 264.621L152.919 265.268C154.235 263.252 155.497 261.162 156.672 259.059L155.635 258.478C154.475 260.557 153.223 262.623 151.922 264.621Z" fill="#E6E6E6"/>
<path d="M143.273 276.066L144.175 276.847C145.757 275.023 147.292 273.126 148.746 271.207L147.793 270.495C146.36 272.391 144.84 274.266 143.273 276.066Z" fill="#E6E6E6"/>
<path d="M133.146 286.223L133.929 287.117C135.748 285.531 137.527 283.857 139.227 282.157L138.386 281.315C136.705 282.998 134.941 284.648 133.146 286.223Z" fill="#E6E6E6"/>
<path d="M121.736 294.903L122.393 295.898C124.402 294.572 126.397 293.16 128.311 291.704L127.592 290.755C125.696 292.198 123.726 293.595 121.736 294.903Z" fill="#E6E6E6"/>
<path d="M116.204 299.674C114.765 300.486 113.296 301.272 111.811 302.016V300.682C113.094 300.031 114.367 299.343 115.614 298.646L116.204 299.674Z" fill="#E6E6E6"/>
<path d="M167.772 127.752L168.961 127.73C168.983 128.93 168.985 130.136 168.966 131.316L167.777 131.297C167.795 130.131 167.793 128.938 167.772 127.752Z" fill="#E6E6E6"/>
<path d="M117.036 155.941H238.726C247.782 155.941 256.467 159.536 262.871 165.935C269.274 172.334 272.872 181.013 272.872 190.063V194.579H151.183C142.126 194.579 133.441 190.984 127.038 184.585C120.634 178.186 117.036 169.507 117.036 160.458V155.941Z" fill="white"/>
<path d="M197.797 364.749C197.678 364.555 194.879 359.884 193.908 350.184C193.018 341.285 193.59 326.286 201.375 305.362C216.123 265.724 197.976 233.741 197.791 233.423L198.686 232.904C198.733 232.985 203.416 241.139 206.182 254.123C209.837 271.338 208.506 289.237 202.345 305.722C187.623 345.293 198.568 364.025 198.68 364.21L197.797 364.749Z" fill="#F2F2F2"/>
<path d="M192.03 231.095C195.745 231.095 198.756 228.086 198.756 224.374C198.756 220.663 195.745 217.654 192.03 217.654C188.316 217.654 185.304 220.663 185.304 224.374C185.304 228.086 188.316 231.095 192.03 231.095Z" fill="#EE6C4D"/>
<path d="M213.242 255.911C216.957 255.911 219.968 252.902 219.968 249.19C219.968 245.478 216.957 242.469 213.242 242.469C209.528 242.469 206.516 245.478 206.516 249.19C206.516 252.902 209.528 255.911 213.242 255.911Z" fill="#F2F2F2"/>
<path d="M198.756 272.455C202.47 272.455 205.482 269.446 205.482 265.734C205.482 262.022 202.47 259.013 198.756 259.013C195.041 259.013 192.03 262.022 192.03 265.734C192.03 269.446 195.041 272.455 198.756 272.455Z" fill="#EE6C4D"/>
<path d="M216.346 286.413C220.061 286.413 223.072 283.404 223.072 279.693C223.072 275.981 220.061 272.972 216.346 272.972C212.632 272.972 209.621 275.981 209.621 279.693C209.621 283.404 212.632 286.413 216.346 286.413Z" fill="#EE6C4D"/>
<path d="M193.582 308.127C197.297 308.127 200.308 305.118 200.308 301.406C200.308 297.694 197.297 294.685 193.582 294.685C189.868 294.685 186.857 297.694 186.857 301.406C186.857 305.118 189.868 308.127 193.582 308.127Z" fill="#F2F2F2"/>
<path d="M201.86 364.996C201.86 364.996 195.134 348.453 215.312 336.045L201.86 364.996Z" fill="#F2F2F2"/>
<path d="M193.589 364.696C193.589 364.696 190.528 347.103 166.836 347.254L193.589 364.696Z" fill="#F2F2F2"/>
<path opacity="0.2" d="M166.812 216.62C189.671 216.62 208.201 198.102 208.201 175.26C208.201 152.418 189.671 133.901 166.812 133.901C143.954 133.901 125.423 152.418 125.423 175.26C125.423 198.102 143.954 216.62 166.812 216.62Z" fill="#EE6C4D"/>
<path opacity="0.2" d="M166.812 204.387C182.91 204.387 195.959 191.346 195.959 175.26C195.959 159.174 182.91 146.134 166.812 146.134C150.715 146.134 137.665 159.174 137.665 175.26C137.665 191.346 150.715 204.387 166.812 204.387Z" fill="#EE6C4D"/>
<path d="M166.812 194.484C177.437 194.484 186.049 185.877 186.049 175.26C186.049 164.643 177.437 156.037 166.812 156.037C156.188 156.037 147.575 164.643 147.575 175.26C147.575 185.877 156.188 194.484 166.812 194.484Z" fill="#EE6C4D"/>
<path d="M170.31 171.114C170.31 170.524 170.161 169.944 169.876 169.427C169.591 168.91 169.18 168.474 168.681 168.159C168.183 167.844 167.612 167.66 167.023 167.624C166.434 167.589 165.845 167.703 165.312 167.956C164.778 168.209 164.318 168.593 163.973 169.071C163.628 169.55 163.41 170.108 163.34 170.694C163.269 171.28 163.348 171.874 163.568 172.421C163.789 172.968 164.145 173.45 164.603 173.823L163.314 182.833H170.31L169.022 173.823C169.425 173.495 169.749 173.082 169.972 172.614C170.195 172.145 170.31 171.633 170.31 171.114Z" fill="white"/>
<path d="M360.142 27.5557C360.142 27.5557 348.603 17.2185 333.086 36.7001C317.569 56.1817 293.299 65.7237 287.729 73.2778C287.729 73.2778 310.806 63.7358 318.763 59.76C326.72 55.7841 326.323 56.5793 326.323 56.5793C326.323 56.5793 315.58 64.1334 313.591 71.6875C311.601 79.2416 313.193 85.6029 309.612 93.157C306.031 100.711 378.046 98.3256 378.046 98.3256C378.046 98.3256 385.208 86.0005 383.218 73.2778C381.229 60.5551 382.422 29.146 360.142 27.5557Z" fill="#333269"/>
<path d="M338.318 60.0756C338.318 60.0756 340.827 77.6258 330.074 81.5656C319.321 85.5054 323.264 90.878 323.264 90.878L339.393 98.7576L356.598 93.3851L362.332 84.7891C362.332 84.7891 353.013 82.6401 355.522 76.1931C358.031 69.7461 358.748 67.5971 358.748 67.5971L338.318 60.0756Z" fill="#FFB9B9"/>
<path opacity="0.1" d="M338.318 60.0756C338.318 60.0756 340.827 77.6258 330.074 81.5656C319.321 85.5054 323.264 90.878 323.264 90.878L339.393 98.7576L356.598 93.3851L362.332 84.7891C362.332 84.7891 353.013 82.6401 355.522 76.1931C358.031 69.7461 358.748 67.5971 358.748 67.5971L338.318 60.0756Z" fill="black"/>
<path d="M383.479 110.219C383.479 110.219 380.97 143.17 381.687 144.603C382.404 146.036 381.687 195.821 381.687 195.821C381.687 195.821 386.705 222.684 380.254 224.116C373.802 225.549 375.236 194.03 375.236 194.03L368.784 152.483L369.501 111.293L383.479 110.219Z" fill="#FFB9B9"/>
<path opacity="0.1" d="M383.479 110.219C383.479 110.219 380.97 143.17 381.687 144.603C382.404 146.036 381.687 195.821 381.687 195.821C381.687 195.821 386.705 222.684 380.254 224.116C373.802 225.549 375.236 194.03 375.236 194.03L368.784 152.483L369.501 111.293L383.479 110.219Z" fill="black"/>
<path d="M313.586 209.431C313.586 209.431 301.758 254.202 302.117 276.05C302.475 297.899 307.135 328.343 307.135 328.343C307.135 328.343 307.852 341.595 306.776 343.028C305.701 344.46 312.153 350.549 312.153 350.549L318.963 346.609L321.472 343.744V341.237C321.472 341.237 317.529 329.059 320.755 319.389C323.981 309.718 325.773 285.363 322.547 277.841L344.769 211.939L313.586 209.431Z" fill="#FFB9B9"/>
<path d="M312.87 344.819C312.87 344.819 308.568 339.446 305.701 341.237C302.834 343.028 298.174 355.205 298.174 355.205C298.174 355.205 282.045 370.607 293.515 371.323C304.984 372.039 310.002 368.099 311.436 365.234C312.87 362.369 326.131 354.847 326.131 354.847C326.131 354.847 324.698 341.237 322.547 340.879C320.396 340.521 317.171 346.251 317.171 346.251L312.87 344.819Z" fill="#333269"/>
<path d="M352.655 212.297V256.709C352.696 262.098 353.055 267.48 353.73 272.827C354.805 280.707 347.637 339.446 347.637 339.446L348.354 349.833L357.314 349.117L358.39 340.162L371.293 300.764C371.293 300.764 375.594 276.767 373.444 267.813C371.293 258.858 384.555 201.552 384.555 201.552L352.655 212.297Z" fill="#FFB9B9"/>
<path d="M345.486 347.326L348.141 346.749C348.141 346.749 350.146 342.311 352.655 343.386C354.42 344.2 356.093 345.201 357.644 346.373L358.748 348.4C358.748 348.4 361.257 353.773 364.483 357.354C367.709 360.936 371.293 368.816 365.917 369.532C360.54 370.248 353.372 370.607 351.221 368.816C349.071 367.025 350.504 364.16 348.354 363.443C346.203 362.727 344.411 360.578 344.769 359.862C345.128 359.145 345.486 347.326 345.486 347.326Z" fill="#333269"/>
<path d="M352.655 72.4121C361.452 72.4121 368.585 65.2853 368.585 56.4938C368.585 47.7024 361.452 40.5756 352.655 40.5756C343.857 40.5756 336.725 47.7024 336.725 56.4938C336.725 65.2853 343.857 72.4121 352.655 72.4121Z" fill="#FFB9B9"/>
<path d="M322.547 84.4309L327.281 82.7792C327.281 82.7792 325.414 85.8636 335.45 87.6544C345.486 89.4453 355.88 90.0793 360.54 84.2107C360.54 84.2107 362.332 83.3564 364.841 85.8636C367.35 88.3707 368.784 87.6544 368.784 87.6544L366.992 96.9668L363.408 114.159L358.748 127.053L345.486 124.187L331.149 113.801L325.773 99.8321V86.9381L322.547 84.4309Z" fill="#EE6C4D"/>
<path d="M366.275 89.4452L369.859 86.938C369.859 86.938 382.046 89.087 382.763 94.8177L373.443 112.726C375.344 117.709 375.216 123.238 373.085 128.127C369.501 136.365 369.859 138.156 369.859 138.156L367.35 148.901L321.83 152.483C321.83 152.483 320.038 148.185 319.321 147.468C318.604 146.752 318.604 144.245 319.321 144.245C320.038 144.245 319.321 143.17 318.604 142.096C317.888 141.021 317.529 140.663 318.604 139.23C319.68 137.798 316.812 124.904 316.812 124.904V110.935L304.626 94.8177C304.626 94.8177 308.927 88.3707 311.077 87.6544C313.228 86.938 323.458 84.113 323.458 84.113L325.773 87.519L328.999 113.442L333.658 129.202L353.277 125.871L360.899 113.084L365.917 98.0412L366.275 89.4452Z" fill="#EE6C4D"/>
<path d="M379.895 92.6687L382.763 94.8177C382.763 94.8177 385.271 114.875 384.555 116.308C383.838 117.74 371.293 119.173 370.935 118.457C370.576 117.74 379.895 92.6687 379.895 92.6687Z" fill="#EE6C4D"/>
<path d="M320.755 82.6401L324.339 106.279C324.339 106.279 321.113 141.38 321.83 148.543L322.547 150.692C322.547 150.692 321.113 149.976 320.755 151.408C320.396 152.841 320.755 157.497 320.755 157.497C320.755 157.497 318.604 159.646 317.887 171.466C317.171 183.285 308.568 211.58 311.794 212.655C315.02 213.729 334.375 219.102 344.769 218.027C355.164 216.953 392.44 204.417 392.082 201.193C391.723 197.97 373.802 152.483 373.802 152.483C373.802 152.483 370.576 147.11 370.576 146.394C370.576 145.678 374.877 142.812 373.802 139.947C372.727 137.082 366.992 106.995 366.992 106.995L370.935 85.5054L365.558 84.0727L361.615 104.846C361.615 104.846 346.203 112.368 330.074 105.563L326.49 81.2074L320.755 82.6401Z" fill="#333269"/>
<path d="M338 45.0698C338 45.0698 364.523 63.3364 371.692 55.0985C378.86 46.8607 359.147 39.6973 359.147 39.6973L342.659 37.9065L338 45.0698Z" fill="#333269"/>
<path d="M296.789 239.389C299.519 241.42 302.896 242.386 306.288 242.106C309.68 241.826 312.854 240.32 315.214 237.87C317.574 235.419 318.958 232.193 319.108 228.795C319.258 225.398 318.163 222.062 316.027 219.414C313.892 216.766 310.864 214.986 307.509 214.41C304.155 213.833 300.706 214.499 297.808 216.282C294.91 218.065 292.762 220.843 291.767 224.095C290.772 227.347 290.998 230.851 292.402 233.948L255.821 264.384L250.951 258.608L248.762 260.07L246.327 257.182L248.328 255.497L245.892 252.609L242.78 255.23L244.278 257.007L240.943 259.815L239.445 258.038L234.553 262.156L236.801 264.822L238.58 263.325L241.015 266.213L238.792 268.085L243.288 273.417L237.952 277.91L243.385 284.353L296.789 239.389ZM305.923 218.972C307.746 219.127 309.482 219.82 310.911 220.961C312.34 222.103 313.399 223.642 313.952 225.385C314.506 227.128 314.53 228.995 314.022 230.752C313.514 232.508 312.495 234.074 311.096 235.252C309.697 236.431 307.979 237.168 306.161 237.37C304.342 237.573 302.505 237.232 300.88 236.392C299.255 235.551 297.917 234.247 297.033 232.646C296.15 231.045 295.762 229.218 295.917 227.396C296.126 224.953 297.298 222.693 299.174 221.113C301.05 219.533 303.478 218.763 305.923 218.972V218.972Z" fill="#EE6C4D"/>
<path d="M302.117 114.517C302.117 114.517 304.626 147.468 303.909 148.901C303.192 150.334 303.909 200.119 303.909 200.119C303.909 200.119 298.891 226.981 305.343 228.414C311.794 229.847 310.361 198.328 310.361 198.328L316.812 156.781L316.095 115.591L302.117 114.517Z" fill="#FFB9B9"/>
<path d="M307.493 93.7433L304.626 94.8178C304.626 94.8178 299.249 117.382 300.683 117.382C302.117 117.382 319.321 119.531 319.321 118.815C319.321 118.099 316.095 100.548 316.095 100.548L307.493 93.7433Z" fill="#EE6C4D"/>
</svg>
