<svg xmlns="http://www.w3.org/2000/svg" viewBox="0 0 722.78 799.89"><defs><style>.cls-1{fill:#1e1a1a;}</style></defs><title>EDU - Vertical</title><g id="Camada_2" data-name="Camada 2"><path class="cls-1" d="M351,429.29l10.44,19,10.35-18.85c-3.1.25-6.22.41-9.37.41C358.51,429.86,354.71,429.66,351,429.29Z"/><path class="cls-1" d="M395.91,373.19h-1.45a32,32,0,0,1-25.19-12.29,8.48,8.48,0,0,0-6.62-3.34h-.57a8.44,8.44,0,0,0-6.61,3.34,32,32,0,0,1-25.2,12.29h-1.45a26.86,26.86,0,0,1-9.68-1.82l26,47.32a107.62,107.62,0,0,0,17.24,1.4A109.12,109.12,0,0,0,377.48,419l25.72-46.85A26.64,26.64,0,0,1,395.91,373.19Z"/><path class="cls-1" d="M362.37,205.14a107.46,107.46,0,0,0-30,210.67L317.12,388a87.87,87.87,0,0,1,.3-150.91V346.16a11.41,11.41,0,0,0,11.4,11.4h1.45a16.46,16.46,0,0,0,16.46-16.47v-115a86.79,86.79,0,0,1,31.27,0v115a16.46,16.46,0,0,0,16.46,16.47h1.45a11.4,11.4,0,0,0,11.4-11.4V237.07a87.88,87.88,0,0,1-2.55,152.56L390,416.46a107.47,107.47,0,0,0-27.65-211.32Z"/><path class="cls-1" d="M317.14,154.64l-4.6,3.6v48.85l18.83-7.38a84.93,84.93,0,0,1,62,0l18.83,7.38V158.24l-4.59-3.6A73.29,73.29,0,0,0,317.14,154.64Z"/><polygon class="cls-1" points="272.48 132.84 231.44 150.43 272.48 166.78 272.48 132.84"/><path class="cls-1" d="M285.18,205.14c6.84,0,6.84-5.69,6.84-12.7,0-4.93-1.52-9.2-3.73-11.3,2.2-.82,3.73-2.44,3.73-4.33a3.94,3.94,0,0,0-1.14-2.7l11.89,4.74V153.49l8.34-6.54a83.08,83.08,0,0,1,102.52,0l8.33,6.54v24.58l69.37-27.64L361.39,94.74l-61.55,26.38H282.25v51.29c-2.31.79-3.91,2.45-3.91,4.4s1.53,3.51,3.73,4.33c-2.21,2.1-3.73,6.37-3.73,11.3C278.34,199.45,278.34,205.14,285.18,205.14Z"/><path class="cls-1" d="M111.51,647.17q2.88-29.53,4.19-49.46t2.64-53q1.32-33,1.33-43.79l-.12-10.08q27,.24,65.36.23,35.39,0,62.39-.23l-.23,3.77q-.12,1.36-.57,9.92L245.81,517q-.23,4-.23,8.1-22.1-.92-37.09-.91-16.49,0-22.27.06t-18,.51l-1.39,26.33q13.51.35,31.49.35,6.41,0,34.13-.8-1.15,14.65-2.18,34.92-19.8-.24-30.43-.23-15.8,0-35.36.8L163.09,614h13.15q5.83,0,24.15-.34l23.68-.58q5.27-.1,17.62-.91-1.38,16.93-2.29,35-27.93-.23-61.25-.23l-50.38.12Z"/><path class="cls-1" d="M266.42,647.17q2.54-26.1,3.46-41.79,1.38-23.36,2.76-60.45,1-28.39,1-40.64v-13.4q13.38.35,23.12.35,9.39,0,24.61-.52t28.61-.51a174.11,174.11,0,0,1,26.9,1.83,63,63,0,0,1,21.57,7.55,53.13,53.13,0,0,1,16.77,15,68.34,68.34,0,0,1,10.3,21.7,92.53,92.53,0,0,1,3.55,25.59,111.07,111.07,0,0,1-2.75,24.9,92.83,92.83,0,0,1-7.67,21.58,70.36,70.36,0,0,1-11.5,16.54,67.15,67.15,0,0,1-15.06,11.85,64.42,64.42,0,0,1-12.71,5.73,94.59,94.59,0,0,1-17.52,3.32,257.77,257.77,0,0,1-28,1.37l-46.25-.34Q281.08,646.83,266.42,647.17Zm49.5-34.46q6.29.57,13.16.57a94.83,94.83,0,0,0,20.82-2.06A33.07,33.07,0,0,0,366,602.41a40.91,40.91,0,0,0,10.24-17.35,72.21,72.21,0,0,0,3.32-21.7q0-13.62-4.93-23t-13.11-13q-8.17-3.66-22.26-3.66-8.25,0-19.47.69Z"/><path class="cls-1" d="M454.44,490.89q17.85.24,25.17.23,9.17,0,24.38-.23l-3.41,48.66q-1,13.74-1.53,25.76t-.51,16.6a71.22,71.22,0,0,0,1.25,14.54,23.15,23.15,0,0,0,4.58,9.91,20.06,20.06,0,0,0,9.21,6.12,37.1,37.1,0,0,0,12.3,2.06,34.32,34.32,0,0,0,10.29-1.5,23.54,23.54,0,0,0,6.75-3.41,22.53,22.53,0,0,0,4.58-4.77,33.74,33.74,0,0,0,4.23-8.18,50.55,50.55,0,0,0,2.75-12q1-7.5,2.75-34.09,1.49-22.62,2.29-41.44.69-18.27,1.26-18.27h50.48l-5.56,81.29c-.08,1.53-.11,2.79-.11,3.78q-.47,23.81-2.93,33.6a44.4,44.4,0,0,1-8.18,17q-5.73,7.22-16.72,13a84,84,0,0,1-25,8.18,165.8,165.8,0,0,1-28.29,2.41,162.66,162.66,0,0,1-24.73-1.83A97.05,97.05,0,0,1,480,643a70.37,70.37,0,0,1-15.34-8.18,40,40,0,0,1-9.17-8.88,36,36,0,0,1-5-10.82,54.09,54.09,0,0,1-2.07-15.22c0-1.84.08-4.6.23-8.3s.5-9,1-16l1.49-18.32q.58-7.21,1.27-21.18Z"/><path class="cls-1" d="M126.63,704.68H111.51V676.16H126v3H114.86v9.49h10.3v3h-10.3v10h11.77Z"/><path class="cls-1" d="M148.58,704.68h-3.26V693.06q0-6.48-4.73-6.48a5.12,5.12,0,0,0-4.05,1.84,6.8,6.8,0,0,0-1.6,4.64v11.62h-3.26V684.31h3.26v3.38H135a7.34,7.34,0,0,1,6.68-3.85,6.24,6.24,0,0,1,5.11,2.15,9.63,9.63,0,0,1,1.77,6.24Z"/><path class="cls-1" d="M153.49,703.94v-3.5a9.67,9.67,0,0,0,5.87,2c2.86,0,4.29-1,4.29-2.86a2.46,2.46,0,0,0-.37-1.39,3.61,3.61,0,0,0-1-1,8.42,8.42,0,0,0-1.47-.79l-1.82-.72a22.63,22.63,0,0,1-2.38-1.09,7.08,7.08,0,0,1-1.71-1.23,4.56,4.56,0,0,1-1-1.56,5.57,5.57,0,0,1-.35-2,4.82,4.82,0,0,1,.66-2.53,5.72,5.72,0,0,1,1.75-1.85,8.21,8.21,0,0,1,2.49-1.13,11.17,11.17,0,0,1,2.89-.37,11.69,11.69,0,0,1,4.74.91v3.3a9.23,9.23,0,0,0-5.17-1.47,6,6,0,0,0-1.65.21,4,4,0,0,0-1.27.59,2.66,2.66,0,0,0-.81.9,2.4,2.4,0,0,0-.29,1.16,2.86,2.86,0,0,0,.29,1.34,3,3,0,0,0,.84,1,6.65,6.65,0,0,0,1.36.76c.53.22,1.13.47,1.81.73a24.5,24.5,0,0,1,2.42,1.07,7.9,7.9,0,0,1,1.83,1.23,4.82,4.82,0,0,1,1.16,1.58,5.62,5.62,0,0,1-.25,4.75,5.82,5.82,0,0,1-1.78,1.85,8,8,0,0,1-2.57,1.09,12.59,12.59,0,0,1-3,.36A11.53,11.53,0,0,1,153.49,703.94Z"/><path class="cls-1" d="M173.67,679.14a2.05,2.05,0,0,1-1.49-.59,2,2,0,0,1-.62-1.51,2.1,2.1,0,0,1,2.11-2.13,2.07,2.07,0,0,1,1.52.61,2.11,2.11,0,0,1,0,3A2.07,2.07,0,0,1,173.67,679.14Zm1.59,25.54H172V684.31h3.26Z"/><path class="cls-1" d="M198.77,704.68h-3.26V693.06q0-6.48-4.74-6.48a5.1,5.1,0,0,0-4,1.84,6.8,6.8,0,0,0-1.6,4.64v11.62h-3.27V684.31h3.27v3.38h.08a7.33,7.33,0,0,1,6.68-3.85A6.26,6.26,0,0,1,197,686a9.63,9.63,0,0,1,1.77,6.24Z"/><path class="cls-1" d="M213.42,705.15a9.46,9.46,0,0,1-7.21-2.85,10.59,10.59,0,0,1-2.69-7.57q0-5.13,2.8-8a10.1,10.1,0,0,1,7.58-2.88,9.15,9.15,0,0,1,7.11,2.8q2.55,2.8,2.55,7.78a11,11,0,0,1-2.75,7.8A9.64,9.64,0,0,1,213.42,705.15Zm.24-18.57a6.19,6.19,0,0,0-5,2.14,8.76,8.76,0,0,0-1.83,5.89,8.31,8.31,0,0,0,1.85,5.71,6.28,6.28,0,0,0,4.95,2.09,5.94,5.94,0,0,0,4.86-2,8.91,8.91,0,0,0,1.7-5.83,9.05,9.05,0,0,0-1.7-5.88A5.92,5.92,0,0,0,213.66,686.58Z"/><path class="cls-1" d="M254.5,704.68h-3.26v-3.19h-.08a6.83,6.83,0,0,1-6.26,3.66,6.65,6.65,0,0,1-4.76-1.61,5.56,5.56,0,0,1-1.72-4.27q0-5.71,6.72-6.64l6.1-.86q0-5.19-4.19-5.19a10,10,0,0,0-6.65,2.51v-3.34a12.58,12.58,0,0,1,6.92-1.91q7.19,0,7.18,7.59Zm-3.26-10.3-4.91.67a7.91,7.91,0,0,0-3.42,1.13,3.22,3.22,0,0,0-1.15,2.85,3.1,3.1,0,0,0,1.06,2.43,4.1,4.1,0,0,0,2.83.95,5.24,5.24,0,0,0,4-1.7,6.09,6.09,0,0,0,1.58-4.31Z"/><path class="cls-1" d="M272.24,704.68V676.16h7.87q15.08,0,15.07,13.9A14,14,0,0,1,291,700.67q-4.19,4-11.21,4Zm3.34-25.5v22.47h4.25q5.61,0,8.73-3t3.12-8.51q0-10.95-11.65-11Z"/><path class="cls-1" d="M302,679.14a2.05,2.05,0,0,1-1.49-.59,2,2,0,0,1-.61-1.51,2.08,2.08,0,0,1,2.1-2.13,2.1,2.1,0,0,1,1.53.61,2.14,2.14,0,0,1,0,3A2.1,2.1,0,0,1,302,679.14Zm1.6,25.54h-3.27V684.31h3.27Z"/><path class="cls-1" d="M309,703.94v-3.5a9.7,9.7,0,0,0,5.87,2c2.86,0,4.3-1,4.3-2.86a2.55,2.55,0,0,0-.37-1.39,3.8,3.8,0,0,0-1-1,8.07,8.07,0,0,0-1.47-.79l-1.82-.72a22.4,22.4,0,0,1-2.37-1.09,6.71,6.71,0,0,1-1.71-1.23,4.59,4.59,0,0,1-1-1.56,5.57,5.57,0,0,1-.35-2,4.82,4.82,0,0,1,.66-2.53,5.83,5.83,0,0,1,1.75-1.85,8.27,8.27,0,0,1,2.5-1.13,11.06,11.06,0,0,1,2.89-.37,11.67,11.67,0,0,1,4.73.91v3.3a9.23,9.23,0,0,0-5.17-1.47,6,6,0,0,0-1.65.21,3.86,3.86,0,0,0-1.26.59,2.81,2.81,0,0,0-.82.9,2.4,2.4,0,0,0-.29,1.16,2.86,2.86,0,0,0,.29,1.34,3.15,3.15,0,0,0,.85,1,6.56,6.56,0,0,0,1.35.76c.53.22,1.13.47,1.81.73a25.83,25.83,0,0,1,2.43,1.07,8,8,0,0,1,1.82,1.23,4.72,4.72,0,0,1,1.17,1.58,5.15,5.15,0,0,1,.41,2.13,5.05,5.05,0,0,1-.67,2.62A5.71,5.71,0,0,1,320,703.7a8,8,0,0,1-2.57,1.09,12.53,12.53,0,0,1-3,.36A11.56,11.56,0,0,1,309,703.94Z"/><path class="cls-1" d="M336.94,704.48a6.33,6.33,0,0,1-3,.63q-5.36,0-5.35-6v-12h-3.5v-2.79h3.5v-5l3.26-1.05v6h5.13v2.79h-5.13v11.47a4.69,4.69,0,0,0,.7,2.92,2.74,2.74,0,0,0,2.3.88,3.43,3.43,0,0,0,2.13-.68Z"/><path class="cls-1" d="M355.87,704.68h-3.26v-3.19h-.08a6.83,6.83,0,0,1-6.26,3.66,6.69,6.69,0,0,1-4.77-1.61,5.6,5.6,0,0,1-1.72-4.27q0-5.71,6.73-6.64l6.1-.86q0-5.19-4.2-5.19a10,10,0,0,0-6.64,2.51v-3.34a12.56,12.56,0,0,1,6.92-1.91q7.19,0,7.18,7.59ZM354,680.46H351.6l-3.27-4.58-3.28,4.58h-2.24l4.27-6.6h2.65Zm-1.41,13.92-4.91.67a7.91,7.91,0,0,0-3.42,1.13,3.22,3.22,0,0,0-1.15,2.85,3.1,3.1,0,0,0,1.06,2.43,4.1,4.1,0,0,0,2.83.95,5.24,5.24,0,0,0,4-1.7,6.09,6.09,0,0,0,1.58-4.31Z"/><path class="cls-1" d="M378.92,704.68h-3.26V693.06q0-6.48-4.74-6.48a5.1,5.1,0,0,0-4,1.84,6.8,6.8,0,0,0-1.6,4.64v11.62H362V684.31h3.26v3.38h.08a7.33,7.33,0,0,1,6.68-3.85,6.26,6.26,0,0,1,5.11,2.15,9.63,9.63,0,0,1,1.77,6.24Z"/><path class="cls-1" d="M398.94,703.74a10.6,10.6,0,0,1-5.57,1.41,9.23,9.23,0,0,1-7-2.83,10.29,10.29,0,0,1-2.67-7.35,11.29,11.29,0,0,1,2.88-8.08,10.07,10.07,0,0,1,7.7-3,10.75,10.75,0,0,1,4.73,1v3.34a8.29,8.29,0,0,0-4.85-1.59,6.56,6.56,0,0,0-5.12,2.24,8.49,8.49,0,0,0-2,5.87,8.1,8.1,0,0,0,1.88,5.65,6.46,6.46,0,0,0,5,2.07,8.15,8.15,0,0,0,5-1.77Z"/><path class="cls-1" d="M405.54,679.14a2.05,2.05,0,0,1-1.49-.59,2,2,0,0,1-.62-1.51,2.1,2.1,0,0,1,2.11-2.13,2.07,2.07,0,0,1,1.52.61,2.11,2.11,0,0,1,0,3A2.07,2.07,0,0,1,405.54,679.14Zm1.59,25.54h-3.26V684.31h3.26Z"/><path class="cls-1" d="M428.31,704.68h-3.26v-3.19H425a6.84,6.84,0,0,1-6.27,3.66,6.68,6.68,0,0,1-4.76-1.61,5.6,5.6,0,0,1-1.72-4.27q0-5.71,6.72-6.64l6.11-.86q0-5.19-4.2-5.19a10,10,0,0,0-6.64,2.51v-3.34a12.56,12.56,0,0,1,6.92-1.91q7.19,0,7.18,7.59Zm-3.26-10.3-4.91.67a7.91,7.91,0,0,0-3.42,1.13,3.22,3.22,0,0,0-1.16,2.85,3.11,3.11,0,0,0,1.07,2.43,4.1,4.1,0,0,0,2.83.95,5.26,5.26,0,0,0,4-1.7,6.09,6.09,0,0,0,1.58-4.31Z"/><path class="cls-1" d="M466.9,693.14q0,12-10.83,12-10.38,0-10.38-11.55V676.16H449v17.22q0,8.77,7.4,8.77,7.13,0,7.13-8.47V676.16h3.34Z"/><path class="cls-1" d="M490.49,704.68h-3.26V693.06q0-6.48-4.74-6.48a5.1,5.1,0,0,0-4,1.84,6.8,6.8,0,0,0-1.6,4.64v11.62h-3.26V684.31h3.26v3.38h.08a7.33,7.33,0,0,1,6.68-3.85,6.26,6.26,0,0,1,5.11,2.15,9.63,9.63,0,0,1,1.77,6.24Z"/><path class="cls-1" d="M498.3,679.14a2.05,2.05,0,0,1-1.49-.59,2,2,0,0,1-.62-1.51,2.1,2.1,0,0,1,2.11-2.13,2.08,2.08,0,0,1,1.52.61,2.11,2.11,0,0,1,0,3A2.08,2.08,0,0,1,498.3,679.14Zm1.59,25.54h-3.26V684.31h3.26Z"/><path class="cls-1" d="M516.55,677.39a4.37,4.37,0,0,0-2.16-.53q-3.42,0-3.42,4.31v3.14h4.77v2.79H511v17.58h-3.24V687.1h-3.48v-2.79h3.48V681a6.84,6.84,0,0,1,1.85-5.06,6.23,6.23,0,0,1,4.61-1.86,6.32,6.32,0,0,1,2.36.36Z"/><path class="cls-1" d="M520.91,679.14a2.05,2.05,0,0,1-1.49-.59,2,2,0,0,1-.62-1.51,2.1,2.1,0,0,1,2.11-2.13,2.08,2.08,0,0,1,1.52.61,2.11,2.11,0,0,1,0,3A2.08,2.08,0,0,1,520.91,679.14Zm1.59,25.54h-3.26V684.31h3.26Z"/><path class="cls-1" d="M543,703.74a10.6,10.6,0,0,1-5.57,1.41,9.23,9.23,0,0,1-7-2.83,10.29,10.29,0,0,1-2.67-7.35,11.29,11.29,0,0,1,2.88-8.08,10.09,10.09,0,0,1,7.7-3,10.72,10.72,0,0,1,4.73,1v3.34a8.29,8.29,0,0,0-4.85-1.59,6.56,6.56,0,0,0-5.12,2.24,8.49,8.49,0,0,0-2,5.87,8.1,8.1,0,0,0,1.88,5.65,6.46,6.46,0,0,0,5,2.07,8.15,8.15,0,0,0,5-1.77Z"/><path class="cls-1" d="M562.49,704.68h-3.26v-3.19h-.08a6.84,6.84,0,0,1-6.27,3.66,6.68,6.68,0,0,1-4.76-1.61,5.56,5.56,0,0,1-1.72-4.27q0-5.71,6.72-6.64l6.11-.86q0-5.19-4.2-5.19a10,10,0,0,0-6.64,2.51v-3.34a12.56,12.56,0,0,1,6.92-1.91q7.17,0,7.18,7.59Zm-3.26-10.3-4.92.67a7.91,7.91,0,0,0-3.42,1.13,3.24,3.24,0,0,0-1.15,2.85,3.11,3.11,0,0,0,1.07,2.43,4.09,4.09,0,0,0,2.83.95,5.26,5.26,0,0,0,4-1.7,6.09,6.09,0,0,0,1.58-4.31Z"/><path class="cls-1" d="M586,704.68h-3.26v-3.46h-.08a8.22,8.22,0,0,1-13.13,1.2,11.23,11.23,0,0,1-2.3-7.45,12.25,12.25,0,0,1,2.54-8.09,8.4,8.4,0,0,1,6.79-3,6.52,6.52,0,0,1,6.1,3.3h.08V674.53H586Zm-3.26-9.21v-3a5.81,5.81,0,0,0-1.63-4.18,5.48,5.48,0,0,0-4.14-1.71,5.62,5.62,0,0,0-4.69,2.19,9.58,9.58,0,0,0-1.71,6,8.64,8.64,0,0,0,1.64,5.56,5.35,5.35,0,0,0,4.4,2,5.58,5.58,0,0,0,4.43-2A7.35,7.35,0,0,0,582.75,695.47Z"/><path class="cls-1" d="M601.12,705.15a9.46,9.46,0,0,1-7.21-2.85,10.59,10.59,0,0,1-2.69-7.57q0-5.13,2.8-8a10.1,10.1,0,0,1,7.58-2.88,9.13,9.13,0,0,1,7.11,2.8q2.55,2.8,2.55,7.78a10.93,10.93,0,0,1-2.75,7.8A9.64,9.64,0,0,1,601.12,705.15Zm.24-18.57a6.19,6.19,0,0,0-5,2.14,8.76,8.76,0,0,0-1.83,5.89,8.31,8.31,0,0,0,1.85,5.71,6.28,6.28,0,0,0,5,2.09,5.94,5.94,0,0,0,4.86-2,8.85,8.85,0,0,0,1.7-5.83,9,9,0,0,0-1.7-5.88A5.92,5.92,0,0,0,601.36,686.58Z"/></g></svg>