<svg width="39" height="53" viewBox="0 0 39 53" fill="none" xmlns="http://www.w3.org/2000/svg">
<path d="M17.9265 49.9607L19.4914 52.7999L21.0441 49.9839C20.58 50.0216 20.1122 50.0448 19.6384 50.0448C19.0604 50.0448 18.4898 50.0156 17.9265 49.9607Z" fill="#3547ab"/>
<path d="M24.6698 41.5833H24.453C23.7244 41.5828 23.0053 41.4173 22.3504 41.0992C21.6955 40.7811 21.1219 40.3188 20.673 39.7474C20.5567 39.5947 20.4069 39.4704 20.235 39.384C20.0631 39.2976 19.8737 39.2513 19.6812 39.2488H19.5918C19.3993 39.2513 19.2099 39.2976 19.038 39.384C18.8662 39.4704 18.7163 39.5947 18.6 39.7474C18.1511 40.3188 17.5775 40.7811 16.9226 41.0992C16.2677 41.4173 15.5487 41.5828 14.82 41.5833H14.6032C14.1065 41.5825 13.6141 41.4903 13.151 41.3114L17.0486 48.382C18.6542 48.6447 20.2907 48.6607 21.9012 48.4295L25.7596 41.4346C25.4048 41.5335 25.0382 41.5835 24.6698 41.5833Z" fill="#3547ab"/>
<path d="M19.6384 16.4878C10.7498 16.4878 3.51672 23.6876 3.51672 32.5367C3.51672 39.834 8.4355 46.0037 15.1433 47.9468L12.8571 43.7911C10.9005 42.6232 9.28189 40.9698 8.15954 38.9925C7.03719 37.0152 6.44956 34.7817 6.45413 32.5105C6.45869 30.2393 7.0553 28.0082 8.18559 26.0354C9.31588 24.0626 10.9412 22.4156 12.9024 21.2555V37.5458C12.9024 37.9985 13.0831 38.4326 13.4045 38.7526C13.726 39.0727 14.1621 39.2525 14.6167 39.2525H14.8335C15.4885 39.2525 16.1167 38.9935 16.5799 38.5323C17.043 38.0712 17.3033 37.4458 17.3033 36.7937V19.6171C18.8536 19.3343 20.4427 19.3343 21.9931 19.6171V36.79C21.9931 37.4421 22.2533 38.0676 22.7164 38.5287C23.1796 38.9898 23.8078 39.2489 24.4629 39.2489H24.6796C25.1342 39.2489 25.5703 39.069 25.8918 38.749C26.2133 38.4289 26.3939 37.9948 26.3939 37.5422V21.2555C28.3911 22.437 30.0393 24.1231 31.1713 26.1429C32.3034 28.1627 32.8791 30.4445 32.8402 32.7571C32.8013 35.0697 32.1491 37.3311 30.9498 39.312C29.7504 41.2929 28.0465 42.9231 26.0106 44.0373L23.7992 48.0456C30.6845 46.217 35.7735 39.9596 35.7735 32.5367C35.7551 23.6876 28.5306 16.4878 19.6384 16.4878Z" fill="#3547ab"/>
<path d="M12.8571 8.94547L12.1677 9.48429V16.7791L14.989 15.6747C17.9777 14.5078 21.2989 14.5078 24.2877 15.6747L27.1126 16.7779V9.48429L26.4232 8.94547C24.4878 7.43476 22.0995 6.61377 19.6402 6.61377C17.1808 6.61377 14.7925 7.43476 12.8571 8.94547Z" fill="#3547ab"/>
<path d="M6.15551 5.69055L0 8.31641L6.15551 10.7582V5.69055Z" fill="#3547ab"/>
<path d="M8.06079 16.4878C9.08691 16.4878 9.08691 15.6344 9.08691 14.5909C9.08691 13.8595 8.85916 13.2158 8.52732 12.9025C8.85793 12.7806 9.08691 12.5368 9.08691 12.2564C9.08378 12.105 9.02242 11.9606 8.91548 11.8529L10.6983 12.5612V8.77357L11.9498 7.79832C14.1432 6.08523 16.8505 5.15419 19.6383 5.15419C22.4262 5.15419 25.1335 6.08523 27.3269 7.79832L28.5783 8.77357V12.4442L38.9865 8.31642L19.4914 0L10.2587 3.93878H7.6212V11.5994C7.27467 11.7213 7.03467 11.9651 7.03467 12.2564C7.03467 12.5478 7.26365 12.7818 7.59426 12.9025C7.26242 13.2158 7.03467 13.8534 7.03467 14.5909C7.03467 15.6381 7.03467 16.4878 8.06079 16.4878Z" fill="#3547ab"/>
</svg>
