<svg xmlns="http://www.w3.org/2000/svg" viewBox="0 0 1000 519.89"><defs><style>.cls-1{fill:#333269;}</style></defs><title>EDU - Horizontal</title><g id="Camada_2" data-name="Camada 2"><path class="cls-1" d="M219.51,417.72l10.44,19,10.35-18.85c-3.1.24-6.22.41-9.38.41C227.07,418.29,223.27,418.09,219.51,417.72Z"/><path class="cls-1" d="M264.47,361.62H263a32,32,0,0,1-25.2-12.29,8.42,8.42,0,0,0-6.61-3.35h-.57a8.46,8.46,0,0,0-6.62,3.35,32,32,0,0,1-25.19,12.29h-1.45a27,27,0,0,1-9.68-1.82l26,47.31a106.56,106.56,0,0,0,32.35.32l25.72-46.84A27,27,0,0,1,264.47,361.62Z"/><path class="cls-1" d="M230.92,193.57a107.46,107.46,0,0,0-30,210.66l-15.28-27.82A87.87,87.87,0,0,1,186,225.5V334.59A11.39,11.39,0,0,0,197.38,346h1.45a16.46,16.46,0,0,0,16.46-16.46v-115a86.79,86.79,0,0,1,31.27,0v115A16.46,16.46,0,0,0,263,346h1.45a11.4,11.4,0,0,0,11.4-11.39V225.5a87.87,87.87,0,0,1-2.56,152.55l-14.74,26.84a107.47,107.47,0,0,0-27.65-211.32Z"/><path class="cls-1" d="M185.69,143.06l-4.6,3.61v48.85l18.84-7.38a84.83,84.83,0,0,1,62,0l18.83,7.38V146.67l-4.6-3.61A73.29,73.29,0,0,0,185.69,143.06Z"/><polygon class="cls-1" points="141.03 121.27 100 138.85 141.03 155.21 141.03 121.27"/><path class="cls-1" d="M153.74,193.57c6.84,0,6.84-5.69,6.84-12.7,0-4.94-1.52-9.21-3.74-11.31,2.21-.81,3.74-2.43,3.74-4.33a4,4,0,0,0-1.14-2.69l11.88,4.74V141.92l8.34-6.54a83,83,0,0,1,102.52,0l8.34,6.54V166.5l69.37-27.65L230,83.16l-61.56,26.38H150.81v51.3c-2.31.78-3.91,2.45-3.91,4.39s1.52,3.52,3.73,4.33c-2.21,2.1-3.73,6.37-3.73,11.31C146.9,187.88,146.9,193.57,153.74,193.57Z"/><path class="cls-1" d="M400.25,350.53q2.87-29.53,4.19-49.46t2.64-52.95q1.32-33,1.32-43.79l-.11-10.08q27,.24,65.36.23,35.37,0,62.39-.23l-.23,3.77q-.12,1.36-.57,9.93l-.69,12.43c-.16,2.67-.23,5.37-.23,8.11q-22.1-.92-37.1-.92-16.49,0-22.26.06t-18,.51l-1.39,26.34q13.52.33,31.5.34,6.41,0,34.12-.8Q520,268.68,519,288.94q-19.8-.22-30.44-.23-15.78,0-35.35.8l-1.37,27.82H465q5.83,0,24.14-.34l23.69-.57q5.27-.12,17.62-.92-1.38,17-2.29,35-27.94-.22-61.26-.23l-50.37.12Z"/><path class="cls-1" d="M555.16,350.53q2.54-26.1,3.45-41.79,1.38-23.36,2.77-60.45,1-28.38,1-40.64v-13.4q13.4.34,23.12.35,9.39,0,24.61-.52t28.62-.51a173.88,173.88,0,0,1,26.89,1.83A62.89,62.89,0,0,1,687.23,203,53.09,53.09,0,0,1,704,218a68.66,68.66,0,0,1,10.3,21.7,92.91,92.91,0,0,1,3.55,25.59,111.07,111.07,0,0,1-2.75,24.9,92.67,92.67,0,0,1-7.67,21.58,70.09,70.09,0,0,1-11.51,16.54,67.32,67.32,0,0,1-15,11.85,64.1,64.1,0,0,1-12.71,5.73,94.93,94.93,0,0,1-17.52,3.32,255.26,255.26,0,0,1-28,1.37l-46.25-.34Q569.82,350.19,555.16,350.53Zm49.49-34.46q6.3.57,13.16.57a95,95,0,0,0,20.83-2.06,33,33,0,0,0,16.07-8.81A40.71,40.71,0,0,0,665,288.42a71.88,71.88,0,0,0,3.32-21.69q0-13.64-4.92-23t-13.11-13q-8.19-3.67-22.27-3.67-8.24,0-19.46.69Z"/><path class="cls-1" d="M743.18,194.25q17.85.24,25.17.23,9.15,0,24.37-.23l-3.4,48.66q-1,13.74-1.54,25.76t-.51,16.6a70.37,70.37,0,0,0,1.26,14.54,23.1,23.1,0,0,0,4.58,9.91,20.06,20.06,0,0,0,9.21,6.12,36.75,36.75,0,0,0,12.29,2.06,34.38,34.38,0,0,0,10.3-1.5,23.52,23.52,0,0,0,6.75-3.4,22.78,22.78,0,0,0,4.57-4.78,33.22,33.22,0,0,0,4.24-8.18,50,50,0,0,0,2.74-12q1-7.5,2.75-34.08,1.49-22.64,2.29-41.45.69-18.27,1.26-18.27H900l-5.57,81.29c-.07,1.53-.11,2.79-.11,3.78q-.45,23.82-2.92,33.6a44.2,44.2,0,0,1-8.19,17q-5.72,7.21-16.72,13a84.2,84.2,0,0,1-25,8.19,166.9,166.9,0,0,1-28.29,2.4,162.79,162.79,0,0,1-24.74-1.83,97,97,0,0,1-19.81-5.33,70.45,70.45,0,0,1-15.35-8.18,40.13,40.13,0,0,1-9.16-8.87,36,36,0,0,1-5-10.82,54.58,54.58,0,0,1-2.06-15.23q0-2.75.23-8.3t1-16l1.49-18.32q.57-7.22,1.27-21.18Z"/><path class="cls-1" d="M415.36,408H400.25V379.52h14.48v3H403.59V392h10.3v3h-10.3v10h11.77Z"/><path class="cls-1" d="M437.32,408h-3.27V396.43c0-4.33-1.57-6.49-4.73-6.49a5.13,5.13,0,0,0-4,1.84,6.83,6.83,0,0,0-1.6,4.65V408h-3.27V387.68h3.27v3.38h.07a7.35,7.35,0,0,1,6.69-3.86,6.24,6.24,0,0,1,5.11,2.16q1.77,2.14,1.77,6.23Z"/><path class="cls-1" d="M442.23,407.3v-3.5a9.65,9.65,0,0,0,5.86,2q4.31,0,4.3-2.86a2.41,2.41,0,0,0-.37-1.38,3.79,3.79,0,0,0-1-1,7.59,7.59,0,0,0-1.48-.78c-.56-.24-1.17-.48-1.82-.73a24.72,24.72,0,0,1-2.37-1.08,7.39,7.39,0,0,1-1.71-1.24,4.54,4.54,0,0,1-1-1.56,5.54,5.54,0,0,1-.34-2.05,4.94,4.94,0,0,1,.65-2.53,5.83,5.83,0,0,1,1.75-1.85,8,8,0,0,1,2.5-1.12,11.12,11.12,0,0,1,2.89-.38,11.67,11.67,0,0,1,4.73.91v3.3a9.21,9.21,0,0,0-5.17-1.47,6,6,0,0,0-1.65.21,4.08,4.08,0,0,0-1.26.59,2.66,2.66,0,0,0-.81.9,2.31,2.31,0,0,0-.29,1.17,2.7,2.7,0,0,0,.29,1.33,2.89,2.89,0,0,0,.84.95,6.56,6.56,0,0,0,1.35.76c.53.22,1.14.47,1.81.73a25.83,25.83,0,0,1,2.43,1.07,8.35,8.35,0,0,1,1.83,1.23,4.93,4.93,0,0,1,1.16,1.58,5.15,5.15,0,0,1,.41,2.13,4.93,4.93,0,0,1-.67,2.62,5.62,5.62,0,0,1-1.78,1.85,8.13,8.13,0,0,1-2.56,1.1,12.59,12.59,0,0,1-3,.35A11.51,11.51,0,0,1,442.23,407.3Z"/><path class="cls-1" d="M462.41,382.51a2.06,2.06,0,0,1-1.49-.6,2,2,0,0,1-.62-1.51,2.1,2.1,0,0,1,2.11-2.13,2.08,2.08,0,0,1,1.52.61,2.11,2.11,0,0,1,0,3A2.09,2.09,0,0,1,462.41,382.51ZM464,408h-3.26V387.68H464Z"/><path class="cls-1" d="M487.5,408h-3.26V396.43q0-6.49-4.73-6.49a5.17,5.17,0,0,0-4.05,1.84,6.88,6.88,0,0,0-1.6,4.65V408H470.6V387.68h3.26v3.38h.08a7.34,7.34,0,0,1,6.68-3.86,6.22,6.22,0,0,1,5.11,2.16q1.77,2.14,1.77,6.23Z"/><path class="cls-1" d="M502.16,408.51a9.46,9.46,0,0,1-7.21-2.85,10.53,10.53,0,0,1-2.69-7.56c0-3.42.93-6.1,2.8-8a10.08,10.08,0,0,1,7.58-2.88,9.11,9.11,0,0,1,7.1,2.8q2.56,2.81,2.56,7.78a10.92,10.92,0,0,1-2.76,7.8A9.6,9.6,0,0,1,502.16,408.51Zm.24-18.57a6.2,6.2,0,0,0-5,2.14,8.79,8.79,0,0,0-1.83,5.9,8.25,8.25,0,0,0,1.85,5.7,6.28,6.28,0,0,0,4.95,2.09,6,6,0,0,0,4.86-2,8.88,8.88,0,0,0,1.7-5.82,9.07,9.07,0,0,0-1.7-5.89A6,6,0,0,0,502.4,389.94Z"/><path class="cls-1" d="M543.24,408H540v-3.18h-.08a6.83,6.83,0,0,1-6.27,3.65,6.68,6.68,0,0,1-4.76-1.61,5.58,5.58,0,0,1-1.72-4.27q0-5.72,6.72-6.64l6.11-.86q0-5.19-4.2-5.19a10,10,0,0,0-6.64,2.51v-3.34a12.64,12.64,0,0,1,6.92-1.91q7.19,0,7.18,7.59ZM540,397.74l-4.91.67a8,8,0,0,0-3.42,1.13,3.22,3.22,0,0,0-1.16,2.85,3.13,3.13,0,0,0,1.07,2.44,4.1,4.1,0,0,0,2.83.94,5.26,5.26,0,0,0,4-1.7,6.08,6.08,0,0,0,1.58-4.3Z"/><path class="cls-1" d="M561,408V379.52h7.87q15.07,0,15.07,13.9A14,14,0,0,1,579.74,404q-4.18,4-11.21,4Zm3.34-25.49V405h4.25c3.74,0,6.65-1,8.73-3s3.12-4.84,3.12-8.51q0-11-11.65-10.95Z"/><path class="cls-1" d="M590.76,382.51a2.06,2.06,0,0,1-1.49-.6,2,2,0,0,1-.62-1.51,2.1,2.1,0,0,1,2.11-2.13,2.07,2.07,0,0,1,1.52.61,2.11,2.11,0,0,1,0,3A2.07,2.07,0,0,1,590.76,382.51ZM592.35,408h-3.26V387.68h3.26Z"/><path class="cls-1" d="M597.72,407.3v-3.5a9.67,9.67,0,0,0,5.87,2q4.29,0,4.29-2.86a2.41,2.41,0,0,0-.37-1.38,3.51,3.51,0,0,0-1-1,7.79,7.79,0,0,0-1.47-.78c-.56-.24-1.17-.48-1.82-.73-.9-.36-1.69-.72-2.38-1.08a7.39,7.39,0,0,1-1.71-1.24,4.52,4.52,0,0,1-1-1.56,5.53,5.53,0,0,1-.35-2.05,4.85,4.85,0,0,1,.66-2.53,5.72,5.72,0,0,1,1.75-1.85,8.07,8.07,0,0,1,2.49-1.12,11.2,11.2,0,0,1,2.9-.38,11.67,11.67,0,0,1,4.73.91v3.3a9.23,9.23,0,0,0-5.17-1.47,6,6,0,0,0-1.65.21,4.25,4.25,0,0,0-1.27.59,2.66,2.66,0,0,0-.81.9,2.42,2.42,0,0,0-.29,1.17,2.81,2.81,0,0,0,.29,1.33,2.89,2.89,0,0,0,.84.95,6.93,6.93,0,0,0,1.36.76c.53.22,1.13.47,1.81.73a24.5,24.5,0,0,1,2.42,1.07,7.9,7.9,0,0,1,1.83,1.23,4.79,4.79,0,0,1,1.16,1.58,5.62,5.62,0,0,1-.25,4.75,5.72,5.72,0,0,1-1.78,1.85,8.29,8.29,0,0,1-2.57,1.1,12.59,12.59,0,0,1-3,.35A11.53,11.53,0,0,1,597.72,407.3Z"/><path class="cls-1" d="M625.68,407.84a6.33,6.33,0,0,1-3,.63c-3.57,0-5.35-2-5.35-6V390.46h-3.5v-2.78h3.5v-5l3.26-1.06v6h5.13v2.78h-5.13v11.47a4.82,4.82,0,0,0,.69,2.93,2.81,2.81,0,0,0,2.31.87,3.39,3.39,0,0,0,2.13-.68Z"/><path class="cls-1" d="M644.61,408h-3.26v-3.18h-.08a6.83,6.83,0,0,1-6.27,3.65,6.68,6.68,0,0,1-4.76-1.61,5.55,5.55,0,0,1-1.72-4.27q0-5.72,6.72-6.64l6.11-.86q0-5.19-4.2-5.19a10,10,0,0,0-6.64,2.51v-3.34a12.64,12.64,0,0,1,6.92-1.91q7.19,0,7.18,7.59Zm-1.85-24.22h-2.43l-3.26-4.57-3.28,4.57h-2.25l4.28-6.6h2.64Zm-1.41,13.92-4.91.67a8,8,0,0,0-3.42,1.13,3.22,3.22,0,0,0-1.16,2.85,3.13,3.13,0,0,0,1.07,2.44,4.1,4.1,0,0,0,2.83.94,5.26,5.26,0,0,0,4-1.7,6.08,6.08,0,0,0,1.58-4.3Z"/><path class="cls-1" d="M667.65,408h-3.26V396.43c0-4.33-1.57-6.49-4.73-6.49a5.17,5.17,0,0,0-4,1.84,6.88,6.88,0,0,0-1.6,4.65V408h-3.26V387.68H654v3.38h.08a7.34,7.34,0,0,1,6.68-3.86,6.22,6.22,0,0,1,5.11,2.16q1.77,2.14,1.77,6.23Z"/><path class="cls-1" d="M687.68,407.1a10.62,10.62,0,0,1-5.57,1.41,9.21,9.21,0,0,1-7-2.83,10.29,10.29,0,0,1-2.67-7.35,11.3,11.3,0,0,1,2.88-8.08A10.1,10.1,0,0,1,683,387.2a10.8,10.8,0,0,1,4.74,1v3.34a8.29,8.29,0,0,0-4.85-1.59,6.58,6.58,0,0,0-5.13,2.24,8.5,8.5,0,0,0-2,5.88,8,8,0,0,0,1.88,5.64,6.46,6.46,0,0,0,5,2.07,8.2,8.2,0,0,0,5-1.77Z"/><path class="cls-1" d="M694.28,382.51a2.06,2.06,0,0,1-1.49-.6,2,2,0,0,1-.62-1.51,2.1,2.1,0,0,1,2.11-2.13,2.08,2.08,0,0,1,1.52.61,2.11,2.11,0,0,1,0,3A2.09,2.09,0,0,1,694.28,382.51ZM695.87,408h-3.26V387.68h3.26Z"/><path class="cls-1" d="M717.05,408h-3.27v-3.18h-.07a6.83,6.83,0,0,1-6.27,3.65,6.66,6.66,0,0,1-4.76-1.61,5.55,5.55,0,0,1-1.72-4.27q0-5.72,6.72-6.64l6.1-.86c0-3.46-1.39-5.19-4.19-5.19a10,10,0,0,0-6.64,2.51v-3.34a12.64,12.64,0,0,1,6.92-1.91q7.17,0,7.18,7.59Zm-3.27-10.3-4.91.67a8,8,0,0,0-3.42,1.13,3.22,3.22,0,0,0-1.15,2.85,3.12,3.12,0,0,0,1.06,2.44,4.13,4.13,0,0,0,2.84.94,5.24,5.24,0,0,0,4-1.7,6,6,0,0,0,1.58-4.3Z"/><path class="cls-1" d="M755.64,396.5q0,12-10.84,12-10.38,0-10.38-11.55V379.52h3.35v17.22q0,8.77,7.39,8.77,7.14,0,7.14-8.47V379.52h3.34Z"/><path class="cls-1" d="M779.22,408H776V396.43c0-4.33-1.57-6.49-4.73-6.49a5.17,5.17,0,0,0-4.05,1.84,6.88,6.88,0,0,0-1.6,4.65V408h-3.26V387.68h3.26v3.38h.08a7.34,7.34,0,0,1,6.68-3.86,6.22,6.22,0,0,1,5.11,2.16q1.77,2.14,1.77,6.23Z"/><path class="cls-1" d="M787,382.51a2,2,0,0,1-1.49-.6,2,2,0,0,1-.62-1.51,2,2,0,0,1,.62-1.52,2,2,0,0,1,1.49-.61,2.1,2.1,0,0,1,1.52.61,2.11,2.11,0,0,1,0,3A2.11,2.11,0,0,1,787,382.51ZM788.63,408h-3.26V387.68h3.26Z"/><path class="cls-1" d="M805.29,380.76a4.31,4.31,0,0,0-2.17-.54q-3.42,0-3.42,4.31v3.15h4.78v2.78H799.7V408h-3.24V390.46H793v-2.78h3.48v-3.3a6.89,6.89,0,0,1,1.85-5.07,7.08,7.08,0,0,1,7-1.5Z"/><path class="cls-1" d="M809.65,382.51a2,2,0,0,1-1.49-.6,2,2,0,0,1-.62-1.51,2.1,2.1,0,0,1,2.11-2.13,2.1,2.1,0,0,1,1.52.61,2.14,2.14,0,0,1,0,3A2.11,2.11,0,0,1,809.65,382.51ZM811.24,408H808V387.68h3.26Z"/><path class="cls-1" d="M831.72,407.1a10.62,10.62,0,0,1-5.57,1.41,9.21,9.21,0,0,1-7-2.83,10.29,10.29,0,0,1-2.67-7.35,11.3,11.3,0,0,1,2.88-8.08,10.11,10.11,0,0,1,7.7-3.05,10.78,10.78,0,0,1,4.73,1v3.34a8.29,8.29,0,0,0-4.85-1.59,6.55,6.55,0,0,0-5.12,2.24,8.45,8.45,0,0,0-2,5.88,8,8,0,0,0,1.88,5.64,6.46,6.46,0,0,0,5,2.07,8.2,8.2,0,0,0,5-1.77Z"/><path class="cls-1" d="M851.22,408H848v-3.18h-.08a6.8,6.8,0,0,1-6.26,3.65,6.65,6.65,0,0,1-4.76-1.61,5.55,5.55,0,0,1-1.72-4.27q0-5.72,6.72-6.64l6.1-.86q0-5.19-4.19-5.19a10,10,0,0,0-6.64,2.51v-3.34a12.62,12.62,0,0,1,6.92-1.91q7.17,0,7.17,7.59ZM848,397.74l-4.91.67a8,8,0,0,0-3.42,1.13,3.22,3.22,0,0,0-1.15,2.85,3.12,3.12,0,0,0,1.06,2.44,4.13,4.13,0,0,0,2.84.94,5.24,5.24,0,0,0,4-1.7,6,6,0,0,0,1.58-4.3Z"/><path class="cls-1" d="M874.75,408h-3.26v-3.46h-.08a7.54,7.54,0,0,1-7,3.93,7.62,7.62,0,0,1-6.14-2.73,11.21,11.21,0,0,1-2.29-7.45,12.19,12.19,0,0,1,2.54-8.09,8.4,8.4,0,0,1,6.78-3,6.54,6.54,0,0,1,6.11,3.3h.08V377.89h3.26Zm-3.26-9.21v-3a5.85,5.85,0,0,0-1.63-4.18,5.48,5.48,0,0,0-4.14-1.71,5.62,5.62,0,0,0-4.69,2.19,9.58,9.58,0,0,0-1.71,6,8.59,8.59,0,0,0,1.64,5.56,5.35,5.35,0,0,0,4.4,2,5.59,5.59,0,0,0,4.43-2A7.35,7.35,0,0,0,871.49,398.83Z"/><path class="cls-1" d="M889.86,408.51a9.46,9.46,0,0,1-7.21-2.85A10.53,10.53,0,0,1,880,398.1c0-3.42.93-6.1,2.8-8a10.08,10.08,0,0,1,7.58-2.88,9.11,9.11,0,0,1,7.1,2.8q2.56,2.81,2.56,7.78a11,11,0,0,1-2.75,7.8A9.64,9.64,0,0,1,889.86,408.51Zm.24-18.57a6.21,6.21,0,0,0-5,2.14,8.79,8.79,0,0,0-1.83,5.9,8.25,8.25,0,0,0,1.85,5.7,6.28,6.28,0,0,0,5,2.09,5.94,5.94,0,0,0,4.86-2,8.88,8.88,0,0,0,1.7-5.82A9.07,9.07,0,0,0,895,392,5.92,5.92,0,0,0,890.1,389.94Z"/></g></svg>