<svg xmlns="http://www.w3.org/2000/svg" viewBox="0 0 722.78 799.89"><defs><style>.cls-1{fill:#1e1a1a;}</style></defs><title>EDU - Simbolo</title><g id="Camada_2" data-name="Camada 2"><path class="cls-1" d="M344.29,658.37l17.1,31.13,16.95-30.87c-5.07.4-10.18.67-15.35.67C356.68,659.3,350.45,659,344.29,658.37Z"/><path class="cls-1" d="M417.93,566.48h-2.37a52.42,52.42,0,0,1-41.27-20.13,13.82,13.82,0,0,0-10.83-5.48h-.94a13.82,13.82,0,0,0-10.83,5.48,52.42,52.42,0,0,1-41.27,20.13h-2.37a44.18,44.18,0,0,1-15.86-3L334.75,641a174.64,174.64,0,0,0,53,.52l42.13-76.72A44,44,0,0,1,417.93,566.48Z"/><path class="cls-1" d="M363,291.22c-97.07,0-176,79-176,176,0,80,53.71,147.71,127,169l-25-45.58a143.92,143.92,0,0,1,.49-247.17V522.2A18.67,18.67,0,0,0,308,540.87h2.38a27,27,0,0,0,27-27V325.55a142.46,142.46,0,0,1,51.21,0V513.9a27,27,0,0,0,27,27h2.37A18.67,18.67,0,0,0,436.6,522.2V343.53a143.93,143.93,0,0,1-4.18,249.87l-24.14,44c75.19-20,130.75-88.69,130.75-170.1C539,370.19,460.06,291.22,363,291.22Z"/><path class="cls-1" d="M288.9,208.5l-7.53,5.91v80l30.85-12.1a139.15,139.15,0,0,1,101.54,0l30.85,12.1v-80l-7.54-5.91A120,120,0,0,0,288.9,208.5Z"/><polygon class="cls-1" points="215.76 172.8 148.54 201.6 215.76 228.39 215.76 172.8"/><path class="cls-1" d="M236.56,291.22c11.21,0,11.21-9.31,11.21-20.8,0-8.08-2.49-15.07-6.12-18.52,3.62-1.33,6.12-4,6.12-7.09a6.49,6.49,0,0,0-1.87-4.41l19.47,7.76V206.62L279,195.91a136,136,0,0,1,167.92,0l13.66,10.71v40.26L574.23,201.6,361.39,110.38,260.57,153.59H231.76v84c-3.77,1.29-6.4,4-6.4,7.2s2.5,5.76,6.11,7.09c-3.62,3.45-6.11,10.44-6.11,18.52C225.36,281.91,225.36,291.22,236.56,291.22Z"/></g></svg>